<svg class="w-6 h-6" width="24" height="24" viewBox="0 0 24 24" fill="none" xmlns="http://www.w3.org/2000/svg"><path d="M12.1881 1.99294C12.6497 2.02349 13.0992 2.16046 13.5006 2.39431C13.9579 2.66086 14.3367 3.04351 14.5982 3.50368L22.5963 17.4998L22.689 17.6736C22.8918 18.085 22.9974 18.5384 22.9976 18.9988C22.9978 19.5251 22.8601 20.0429 22.5972 20.4988C22.3343 20.9548 21.9552 21.3329 21.4996 21.5965C21.044 21.86 20.5269 21.9992 20.0006 21.9998H3.99958V21.9988C3.47393 22.0019 2.95667 21.868 2.49958 21.6082C2.03976 21.3468 1.65671 20.9684 1.3902 20.5115C1.12383 20.0547 0.983173 19.5354 0.982002 19.0066C0.980853 18.4791 1.11924 17.9608 1.38239 17.5037H1.38142L9.38142 3.50368C9.64301 3.04336 10.0225 2.66089 10.48 2.39431C10.9385 2.12724 11.4593 1.98614 11.9898 1.98611L12.1881 1.99294ZM11.858 3.9949C11.7275 4.01227 11.6014 4.05521 11.4869 4.12185C11.334 4.21091 11.2069 4.33905 11.1197 4.49294L11.1187 4.49587L3.11872 18.4959L3.11579 18.4998C3.02763 18.6525 2.98161 18.8264 2.982 19.0027C2.98246 19.1787 3.02913 19.3516 3.11774 19.5037C3.20658 19.656 3.33459 19.7828 3.48786 19.8699C3.64103 19.9569 3.81464 20.0013 3.99079 19.9998H19.9986C20.174 19.9996 20.3468 19.9538 20.4986 19.866C20.6504 19.7782 20.7762 19.6516 20.8638 19.4998C20.9515 19.3478 20.9977 19.1752 20.9976 18.9998C20.9976 18.8243 20.9516 18.6517 20.8638 18.4998L20.8619 18.4959L12.8619 4.49587L12.8599 4.49294C12.7727 4.33912 12.6465 4.21088 12.4937 4.12185C12.3409 4.03279 12.1667 3.98611 11.9898 3.98611L11.858 3.9949Z" fill="currentColor" style="fill-opacity:1;"/><path d="M11 13V9C11 8.44772 11.4477 8 12 8C12.5523 8 13 8.44772 13 9V13C13 13.5523 12.5523 14 12 14C11.4477 14 11 13.5523 11 13Z" fill="currentColor" style="fill-opacity:1;"/><path d="M12.0098 16L12.1123 16.0049C12.6165 16.0561 13.0098 16.4822 13.0098 17C13.0098 17.5178 12.6165 17.9439 12.1123 17.9951L12.0098 18H12C11.4477 18 11 17.5523 11 17C11 16.4477 11.4477 16 12 16H12.0098Z" fill="currentColor" style="fill-opacity:1;"/></svg>