<svg width="24" height="24" xmlns:xlink="http://www.w3.org/1999/xlink" xmlns="http://www.w3.org/2000/svg"><defs><clipPath id="mask_1"><use xlink:href="#path_1"/></clipPath><path d="M0 0h24v24H0V0z" id="path_1"/></defs><g id="icon-money-back"><path d="M0 0h24v24H0V0z" id="Background" fill="none" fill-rule="evenodd" stroke="none"/><g clip-path="url(#mask_1)"><path d="M9.947 0c-2.49 0-4.769.93-6.523 2.445L2.195 1.217a.73.73 0 00-1.248.515v3.262C.947 5.55 1.397 6 1.953 6h3.262a.731.731 0 00.517-1.248l-.894-.895A7.943 7.943 0 019.948 2c4.118 0 7.507 3.117 7.95 7.111a1 1 0 001.989-.222C19.332 3.895 15.077 0 9.947 0zM9.93 3.6a.502.502 0 00-.502.502v.927c-.34.043-2.237.4-2.237 2.69 0 3.34 3.46 2.353 3.46 4.582 0 1.116-.72 1.142-.868 1.142-.115 0-.78.052-.967-1.01-.065-.37-.413-.626-.79-.626h-.262c-.495 0-.898.444-.803.93.395 2.013 2.054 2.196 2.328 2.234v.83a.5.5 0 001.002 0v-.83c.338-.042 2.25-.358 2.25-2.686 0-3.205-3.46-2.591-3.459-4.558 0-1.127.622-1.163.756-1.163.196 0 .607.14.764.899.08.394.398.691.8.691h.26a.82.82 0 00.79-1.006c-.386-1.733-1.74-2.038-2.014-2.091v-.955a.502.502 0 00-.502-.502H9.93zM.975 9.986a1 1 0 00-.967 1.125C.562 16.105 4.818 20 9.948 20a9.952 9.952 0 006.51-2.434l1.212 1.213a.748.748 0 001.277-.527V15.01a1.01 1.01 0 00-1.01-1.01h-3.242a.747.747 0 00-.527 1.275l.871.871A7.921 7.921 0 019.947 18c-4.118 0-7.507-3.117-7.95-7.111a1 1 0 00-1.022-.903z" transform="translate(2.053 2)" id="Shape" fill="#FFF" fill-rule="evenodd" stroke="none"/></g></g></svg>