<?xml version="1.0" ?><!DOCTYPE svg  PUBLIC '-//W3C//DTD SVG 1.1//EN'  'http://www.w3.org/Graphics/SVG/1.1/DTD/svg11.dtd'><svg height="512px" style="enable-background:new 0 0 512 512;" version="1.1" viewBox="0 0 512 512" width="512px" xml:space="preserve" xmlns="http://www.w3.org/2000/svg" xmlns:xlink="http://www.w3.org/1999/xlink"><g id="_x37_3-foursquare"><g><g><g><path d="M383.875,16.379H132.268c-34.57,0-44.887,26.526-44.887,43.213v405.405      c0,19.976,10.021,25.866,15.506,28.171c2.146,0.899,5.732,1.707,9.877,1.707c6.412,0,14.193-1.916,20.488-8.255      c0,0,119.507-141.132,121.443-143.427c1.941-2.309,2.898-2.309,4.211-2.309h75.576c32.301,0,38.447-22.601,41.994-36.336      c2.893-11.453,36.18-175.183,46.502-226.923C430.697,37.669,420.676,16.379,383.875,16.379L383.875,16.379z M383.875,16.379" style="fill:#F4427E;"/></g><path d="M323.004,269.409c-1.436,6.939-7.492,11.669-14.557,11.669h-49.57     c-19.564,0-36.744,8.1-49.691,23.412l-62.152,73.416V91.145c0-8.254,6.68-14.953,14.912-14.953h182.232     c9.426,0,16.523,8.489,14.643,17.762c-2.715,13.518-5.846,28.887-9.098,44.979c-1.432,6.972-7.543,12.021-14.613,12.021h-83.693     c-8.229,0-14.908,6.697-14.908,14.95v29.913c0,8.249,6.68,14.949,14.908,14.949h65.381c9.453,0,16.496,8.792,14.586,18.064     C328.131,244.711,325.207,258.764,323.004,269.409L323.004,269.409z M323.004,269.409" style="fill:#FCFCFC;"/></g></g></g><g id="Layer_1"/></svg>
