<svg xmlns="http://www.w3.org/2000/svg" version="1.1" id="svg2" xml:space="preserve" width="43.439" height="42.366"><defs id="defs6"><clipPath clipPathUnits="userSpaceOnUse" id="clipPath20"><path d="M0 551.986h530.973V0H0z" id="path18"/></clipPath></defs><g id="g10" transform="matrix(1.33333 0 0 -1.33333 -181.76 592.727)"><path d="M0 0h530.973v275.986H0z" id="path12" fill="#231f20" fill-opacity="1" fill-rule="nonzero" stroke="none"/><g id="g14"><g id="g16" clip-path="url(#clipPath20)"><g id="g22" transform="translate(152.608 444.545)"><path d="M203.479 143.254c-11.994 0-21.72 9.725-21.72 21.72 0 9.597 6.224 17.737 14.854 20.61 1.087.199 1.483-.473 1.483-1.049 0-.515-.019-1.881-.03-3.693-6.04 1.312-7.314-2.912-7.314-2.912-.988-2.508-2.412-3.176-2.412-3.176-1.972-1.348.148-1.32.148-1.32 2.18.154 3.326 2.238 3.326 2.238 1.938 3.319 5.085 2.36 6.323 1.805.197-1.404.757-2.362 1.379-2.905-4.823-.548-9.895-2.411-9.895-10.734 0-2.37.847-4.31 2.236-5.828-.224-.55-.968-2.758.213-5.748 0 0 1.824-.584 5.973 2.226a20.803 20.803 0 015.437-.73c1.844.008 3.703.249 5.438.73 4.147-2.81 5.967-2.226 5.967-2.226 1.185 2.99.439 5.198.215 5.748 1.392 1.518 2.234 3.457 2.234 5.828 0 8.344-5.08 10.18-9.918 10.717.78.67 1.475 1.996 1.475 4.023 0 2.903-.026 5.245-.026 5.957 0 .581.39 1.257 1.492 1.045 8.624-2.879 14.842-11.012 14.842-20.605 0-11.996-9.725-21.721-21.72-21.721z" transform="matrix(.75 0 0 -.75 -152.608 107.44)" id="path24" fill="#1b1817" fill-opacity="1" fill-rule="evenodd" stroke="none" stroke-width="1.333"/></g></g></g></g></svg>