<svg xmlns="http://www.w3.org/2000/svg" width="1637" height="385" viewBox="0 0 1637 385">
  <defs>
    <style>
      .cls-1, .cls-2 {
        opacity: 0.25;
      }

      .cls-2 {
        fill: none;
        stroke: #f6c4b1;
        stroke-width: 1px;
        fill-rule: evenodd;
      }
    </style>
  </defs>
  <g id="Group_2_copy_2" data-name="Group 2 copy 2" class="cls-1">
    <path id="Shape_2_copy_6" data-name="Shape 2 copy 6" class="cls-2" d="M1,108s60.019,97,274,97S478.2,1,627,1s87.009,230,546,230S1636,0,1636,0"/>
    <path id="Shape_2_copy_6-2" data-name="Shape 2 copy 6" class="cls-2" d="M1,118s60.019,97,274,97S478.2,11,627,11s87.009,230,546,230S1636,10,1636,10"/>
    <path id="Shape_2_copy_6-3" data-name="Shape 2 copy 6" class="cls-2" d="M1,128s60.019,97,274,97S478.2,21,627,21s87.009,230,546,230S1636,20,1636,20"/>
    <path id="Shape_2_copy_6-4" data-name="Shape 2 copy 6" class="cls-2" d="M1,139s60.019,97,274,97S478.2,32,627,32s87.009,230,546,230S1636,31,1636,31"/>
    <path id="Shape_2_copy_6-5" data-name="Shape 2 copy 6" class="cls-2" d="M1,149s60.019,97,274,97S478.2,42,627,42s87.009,230,546,230S1636,41,1636,41"/>
    <path id="Shape_2_copy_6-6" data-name="Shape 2 copy 6" class="cls-2" d="M1,159s60.019,97,274,97S478.2,52,627,52s87.009,230,546,230S1636,51,1636,51"/>
    <path id="Shape_2_copy_6-7" data-name="Shape 2 copy 6" class="cls-2" d="M1,170s60.019,97,274,97S478.2,63,627,63s87.009,230,546,230S1636,62,1636,62"/>
    <path id="Shape_2_copy_6-8" data-name="Shape 2 copy 6" class="cls-2" d="M1,199s60.019,97,274,97S478.2,92,627,92s87.009,230,546,230S1636,91,1636,91"/>
    <path id="Shape_2_copy_6-9" data-name="Shape 2 copy 6" class="cls-2" d="M1,209s60.019,97,274,97S478.2,102,627,102s87.009,230,546,230,463-231,463-231"/>
    <path id="Shape_2_copy_6-10" data-name="Shape 2 copy 6" class="cls-2" d="M1,219s60.019,97,274,97S478.2,112,627,112s87.009,230,546,230,463-231,463-231"/>
    <path id="Shape_2_copy_6-11" data-name="Shape 2 copy 6" class="cls-2" d="M1,230s60.019,97,274,97S478.2,123,627,123s87.009,230,546,230,463-231,463-231"/>
    <path id="Shape_2_copy_6-12" data-name="Shape 2 copy 6" class="cls-2" d="M1,240s60.019,97,274,97S478.2,133,627,133s87.009,230,546,230,463-231,463-231"/>
    <path id="Shape_2_copy_6-13" data-name="Shape 2 copy 6" class="cls-2" d="M1,250s60.019,97,274,97S478.2,143,627,143s87.009,230,546,230,463-231,463-231"/>
    <path id="Shape_2_copy_6-14" data-name="Shape 2 copy 6" class="cls-2" d="M1,261s60.019,97,274,97S478.2,154,627,154s87.009,230,546,230,463-231,463-231"/>
    <path id="Shape_2_copy_6-15" data-name="Shape 2 copy 6" class="cls-2" d="M1,180s60.019,97,274,97S478.2,73,627,73s87.009,230,546,230S1636,72,1636,72"/>
    <path id="Shape_2_copy_6-16" data-name="Shape 2 copy 6" class="cls-2" d="M1,190s60.019,97,274,97S478.2,83,627,83s87.009,230,546,230S1636,82,1636,82"/>
  </g>
</svg>
