<svg id="Шар_1" data-name="Шар 1" xmlns="http://www.w3.org/2000/svg" xmlns:xlink="http://www.w3.org/1999/xlink" viewBox="0 0 655.64 121.68"><defs><clipPath id="clip-path"><rect x="450.64" y="45.64" width="180" height="20" style="fill:none"/></clipPath></defs><rect x="450.64" y="45.64" width="180" height="20" style="fill:#fff"/><g style="clip-path:url(#clip-path)"><rect x="425.64" y="20.64" width="230" height="70" style="fill:#fff"/></g><path d="M483.51,83.84a28.29,28.29,0,0,0-4.57-1.47,20.59,20.59,0,0,0-4.43-.48,19.82,19.82,0,0,0-18.22,11.79,20.3,20.3,0,0,0,0,16,20.61,20.61,0,0,0,4.38,6.35,19.65,19.65,0,0,0,13.77,5.62,19.93,19.93,0,0,0,3.85-.37,27.86,27.86,0,0,0,4.2-1.18l1-.35v-11.6a11.31,11.31,0,0,1-8.45,4,10,10,0,0,1-9.37-6.3,11.3,11.3,0,0,1,0-8.25,10.12,10.12,0,0,1,2.12-3.27A10,10,0,0,1,471,92.15a10.33,10.33,0,0,1,4.07-.8,10.45,10.45,0,0,1,8.4,4.15V83.8Zm16-.9h-9.8v37.74h9.8V105.09h14.15v15.59h9.8V83h-9.8V97.53H499.51V82.94Zm53.3,0H531.36v37.74h21.45v-8.3H541.16v-6.5h11v-8.3h-11v-6.3h11.65V82.94Zm34.2.9a28.29,28.29,0,0,0-4.57-1.47,20.59,20.59,0,0,0-4.43-.48,19.82,19.82,0,0,0-18.22,11.79,20.3,20.3,0,0,0,0,16,20.61,20.61,0,0,0,4.38,6.35A19.67,19.67,0,0,0,578,121.68a19.93,19.93,0,0,0,3.85-.37,27.86,27.86,0,0,0,4.2-1.18l1-.35v-11.6a11.31,11.31,0,0,1-8.45,4,10,10,0,0,1-9.37-6.3,11.3,11.3,0,0,1,0-8.25,10.12,10.12,0,0,1,2.12-3.27,10,10,0,0,1,3.23-2.18,10.33,10.33,0,0,1,4.07-.8,10.45,10.45,0,0,1,8.4,4.15V83.83Zm16-.9h-9.8v37.74H603V104.29l12.75,16.39h12.7l-16.35-19.85L627.06,83H615L603,98.49V82.94Z" style="fill:#1bced4"/><path d="M31.2,120.68,41.6,51.24l27,69.44H81.08l28.48-69.44L120,120.68h31.2L130.72,0h-31l-24,64.32L51.56,0h-31L0,120.68Zm177.28-44.8,14.08-40.2,14.08,40.16Zm43.68,44.8H285.6L239.68,0H205.44L159.52,120.68H193l7.2-21H245l7.2,21ZM299.36,0V120.68h31.36V0ZM356,0V120.68h69V94.08h-37.6V0Z" style="fill:#fff"/></svg>