<svg xmlns="http://www.w3.org/2000/svg" width="36" height="36" fill="none">
  <defs/>
  <path fill="#fff" fill-rule="evenodd" d="M18.0006 0C13.4945 0 9.3703 1.674 6.1961 4.401l-2.224-2.2104a1.3232 1.3232 0 00-.6766-.3623 1.3276 1.3276 0 00-.7648.0735 1.3196 1.3196 0 00-.5943.4844 1.3091 1.3091 0 00-.2228.7314v5.8716c0 1.0008.8143 1.8108 1.8205 1.8108h5.9032a1.3283 1.3283 0 00.7351-.2216 1.3178 1.3178 0 00.4874-.5906 1.3104 1.3104 0 00-.2869-1.4342L8.755 6.9426c2.5912-2.1615 5.8656-3.3451 9.2474-3.3426 7.4523 0 13.5853 5.6106 14.387 12.7998.0533.4748.294.909.6691 1.2073a1.818 1.818 0 001.3315.383 1.8132 1.8132 0 001.2137-.6656 1.794 1.794 0 00.3851-1.3243C34.9844 7.011 27.2843 0 18.0006 0zm-.0307 6.48a.911.911 0 00-.6424.2647.901.901 0 00-.2661.6389v1.6686c-.6153.0774-4.0482.72-4.0482 4.842 0 6.012 6.2614 4.2354 6.2614 8.2476 0 2.0088-1.3029 2.0556-1.5707 2.0556-.2082 0-1.4116.0936-1.75-1.818-.1176-.666-.7474-1.1268-1.4297-1.1268h-.4741c-.8958 0-1.6251.7992-1.4532 1.674.7149 3.6234 3.7171 3.9528 4.213 4.0212v1.494c0 .2392.0955.4685.2655.6377a.9094.9094 0 00.6411.2641.909.909 0 00.6411-.2641.8997.8997 0 00.2656-.6377v-1.494c.6116-.0756 4.0717-.6444 4.0717-4.8348 0-5.769-6.2614-4.6638-6.2596-8.2044 0-2.0286 1.1256-2.0934 1.3681-2.0934.3547 0 1.0985.252 1.3826 1.6182.1448.7092.7202 1.2438 1.4477 1.2438h.4705a1.4897 1.4897 0 00.6403-.1519 1.4825 1.4825 0 00.5112-.4124 1.4726 1.4726 0 00.2816-.5918 1.4676 1.4676 0 00-.0034-.6547c-.6986-3.1194-3.1489-3.6684-3.6447-3.7638v-1.719a.901.901 0 00-.2661-.639.911.911 0 00-.6424-.2646h-.0108zM1.7642 17.9748a1.818 1.818 0 00-.7302.1731 1.8097 1.8097 0 00-.5967.453 1.797 1.797 0 00-.3606.6549 1.7905 1.7905 0 00-.0624.744C1.0168 28.989 8.7188 36 18.0024 36c4.3288-.0047 8.511-1.56 11.781-4.3812l2.1934 2.1834c.1891.1881.43.3164.6922.3684.2623.0521.5342.0258.7815-.0757a1.3525 1.3525 0 00.6077-.4945 1.3409 1.3409 0 00.2295-.7468V27.018c0-.4822-.1925-.9446-.5353-1.2855A1.8326 1.8326 0 0032.46 25.2h-5.867a1.357 1.357 0 00-.75.2276 1.3463 1.3463 0 00-.4968.6034 1.3387 1.3387 0 00.2931 1.464l1.5762 1.5678c-2.5816 2.1554-5.8443 3.337-9.2149 3.3372-7.4522 0-13.5852-5.6106-14.3869-12.7998a1.7966 1.7966 0 00-.603-1.1749 1.815 1.815 0 00-1.2465-.4505z" clip-rule="evenodd"/>
</svg>
