<?xml version="1.0" ?><svg height="512" id="Layer_1" version="1.1" viewBox="0 0 512 512" width="512" xml:space="preserve" xmlns="http://www.w3.org/2000/svg" xmlns:cc="http://creativecommons.org/ns#" xmlns:dc="http://purl.org/dc/elements/1.1/" xmlns:inkscape="http://www.inkscape.org/namespaces/inkscape" xmlns:rdf="http://www.w3.org/1999/02/22-rdf-syntax-ns#" xmlns:sodipodi="http://sodipodi.sourceforge.net/DTD/sodipodi-0.dtd" xmlns:svg="http://www.w3.org/2000/svg"><defs id="defs12"/><g id="g3816"><rect height="512" id="rect2987" rx="64" ry="64" style="fill:#f68423;fill-opacity:1;fill-rule:nonzero;stroke:none" width="512" x="0" y="0"/><path d="m 248.15627,131.554 c -19.4883,0 -35.34375,15.83289 -35.34375,35.25 0,17.01275 12.10215,31.264 28.84375,34.375 -0.3511,10.86185 -0.64375,24.73407 -0.84375,38.0625 2.4355,-0.26666 4.90405,-0.40625 7.40625,-0.40625 2.4621,0 4.88575,0.13515 7.28125,0.40625 -0.2045,-13.32843 -0.4614,-27.18288 -0.8125,-38.0625 16.7372,-3.11989 28.8125,-17.36225 28.8125,-34.375 0,-19.41711 -15.85555,-35.25 -35.34375,-35.25 z m 149.125,49.46875 c -13.4395,0 -24.34375,10.88171 -24.34375,24.28125 0,2.60879 0.4231,5.11772 1.1875,7.46875 L 307.96877,251.929 c 0,0 -5.83235,3.40792 -13.21875,7.75 3.3065,4.07541 5.88325,8.58836 7.71875,13.34375 l 13.34375,-7.78125 c 31.5366,-18.44825 52.19115,-31.11393 66.90625,-40.5625 4.0665,3.0399 9.096,4.84375 14.5625,4.84375 13.4395,0 24.3125,-10.8281 24.3125,-24.21875 0,-13.39954 -10.873,-24.28125 -24.3125,-24.28125 z m -276.25,8.84375 c -1.22628,-0.0112 -2.46935,0.0999 -3.71875,0.34375 -4.84879,0.94219 -9.05259,3.72375 -11.81249,7.8125 -2.0755,3.071 -3.15625,6.59221 -3.15625,10.21875 0,1.18662 0.1305,2.40268 0.375,3.59375 0.94937,4.81381 3.71289,8.97645 7.78125,11.71875 l 0.0312,0 c 4.09312,2.7352 8.99938,3.76185 13.84374,2.8125 2.551,-0.48443 5.0062,-1.76701 7.375,-3.5625 1.1778,0.91552 23.46875,18.15625 23.46875,18.15625 l 36.625,28.21875 0.0312,0.0312 c 2.6444,-4.37762 5.92775,-8.41359 9.71875,-12.03125 l -0.21875,-0.1875 c -32.4345,-25.15914 -51.9371,-37.9573 -62.75,-44.34375 0.4044,-1.54217 0.71875,-3.00602 0.71875,-4.34375 l -0.34375,-3.5625 c -1.70713,-8.7147 -9.38482,-14.7963 -17.96875,-14.875 z m 123.96875,61.78125 c -1.66171,0.0429 -3.34131,0.15431 -5.03125,0.34375 -27.0302,3.03989 -46.8366,24.06288 -44.25,46.96875 2.591,22.89699 26.5993,39.00865 53.625,35.96875 27.0302,-3.02656 46.841,-24.06288 44.25,-46.96875 -2.42916,-21.4701 -23.66811,-36.95664 -48.59375,-36.3125 z m 180.75,14.21875 c -13.9906,0 -25.7387,9.47308 -29.1875,22.34375 -27.6568,-0.43554 -59.09435,-0.74611 -90.96875,-0.875 0.1244,1.92438 0.12055,3.86146 0.0312,5.8125 -0.1866,3.24434 -0.70905,6.43802 -1.53125,9.53125 32.2344,-0.12444 64.0454,-0.44834 92,-0.875 2.7155,13.8573 14.9857,24.3125 29.6875,24.3125 16.6972,0 30.21875,-13.48113 30.21875,-30.125 0,-16.64387 -13.52155,-30.125 -30.21875,-30.125 z M 82.156276,267.429 c -14.435,0 -26.15625,11.66744 -26.15625,26.0625 0,14.38173 11.72125,26.03125 26.15625,26.03125 11.5374,0 21.292304,-7.46619 24.750004,-17.8125 22.99919,0.38221 49.76894,0.66598 77.78124,0.84375 -0.4533,-3.19989 -0.54795,-6.44775 -0.28125,-9.71875 0.093,-1.81771 0.27815,-3.60173 0.59375,-5.375 -27.7857,0.17333 -54.3663,0.46598 -77.24999,0.84375 -2.4132,-11.9107 -12.945254,-20.875 -25.593754,-20.875 z m 109.468744,53.59375 c -12.0396,7.39085 -22.48545,14.02589 -31.15625,19.78125 -4.5865,-4.35985 -10.45205,-6.70874 -16.65625,-6.46875 -6.1731,0.24444 -11.89395,2.86405 -16.09375,7.375 -4.1866,4.5154 -6.39185,10.40271 -6.15625,16.5625 0.5022,12.70623 11.28055,22.64068 24.03125,22.15625 12.4751,-0.47998 22.25,-10.60057 22.25,-23.03125 l 0,-0.90625 c -0.049,-1.4044 -0.3947,-2.94033 -0.8125,-4.5625 0.6667,-0.38665 17.71295,-10.27089 34.28125,-19.875 -1.4977,-1.2844 -2.93465,-2.64491 -4.28125,-4.09375 l -0.0312,0 c -2.0266,-2.18214 -3.8018,-4.51537 -5.375,-6.9375 z m 100.65625,3.3125 c -3.1955,3.61321 -6.8843,6.8744 -10.9375,9.71875 l 10.625,6.28125 c 0,0.009 5.1553,2.96893 6.9375,4 -0.3645,1.58217 -0.65625,3.09991 -0.65625,4.46875 0,1.9066 0.2837,3.82993 0.8125,5.71875 3.1066,10.96851 14.36085,17.43282 25.09375,14.40625 5.0888,-1.43106 9.3243,-4.7978 11.9375,-9.46875 1.7466,-3.08434 2.65625,-6.58734 2.65625,-10.125 0,-1.9466 -0.2747,-3.88798 -0.8125,-5.78125 -3.1021,-10.95962 -14.3473,-17.42836 -25.0625,-14.40625 -2.2622,0.64443 -4.46945,1.86909 -6.59375,3.53125 -0.8133,-0.46665 -2.84375,-1.59375 -2.84375,-1.59375 -2.1955,-1.15107 -4.76095,-2.49681 -11.15625,-6.75 z" id="rect3812" style="fill:#ffffff;fill-opacity:1;fill-rule:nonzero;stroke:none"/></g></svg>
