<svg width="36" height="36" xmlns:xlink="http://www.w3.org/1999/xlink" xmlns="http://www.w3.org/2000/svg"><defs><clipPath id="mask_1"><use xlink:href="#path_1"/></clipPath><clipPath id="mask_2"><use xlink:href="#path_2"/></clipPath><clipPath id="mask_3"><use xlink:href="#path_3"/></clipPath><clipPath id="mask_4"><use xlink:href="#path_4"/></clipPath><clipPath id="mask_5"><use xlink:href="#path_5"/></clipPath><path d="M2.999 0h30.002q.147 0 .294.014.147.015.291.044.145.028.286.071.14.043.277.1.136.056.266.125.13.07.252.151.123.082.236.176.114.093.219.197.104.105.197.218.094.114.176.237.081.122.15.252.07.13.127.266.056.136.099.277.043.141.071.286.03.144.044.291.014.147.014.294v30.002q0 .147-.014.294-.015.147-.044.291-.028.145-.071.286-.043.14-.1.277-.056.136-.125.266-.07.13-.151.252-.082.123-.176.236-.093.114-.197.219-.105.104-.218.197-.114.094-.237.176-.122.081-.252.15-.13.07-.266.127-.136.056-.277.099-.141.043-.286.071-.144.03-.291.044-.147.014-.294.014H2.999q-.147 0-.294-.014-.147-.015-.291-.044-.145-.028-.286-.071-.14-.043-.277-.1-.136-.056-.266-.125-.13-.07-.252-.151-.123-.082-.237-.176-.113-.093-.218-.197-.104-.105-.197-.218-.094-.114-.176-.237-.081-.122-.15-.252-.07-.13-.127-.266-.056-.136-.099-.277-.043-.141-.071-.286-.03-.144-.044-.291Q0 33.148 0 33.001V2.999q0-.147.014-.294.015-.147.044-.291.028-.145.071-.286.043-.14.1-.277.056-.136.125-.266.07-.13.151-.252.082-.123.176-.237Q.774.983.878.878q.105-.104.218-.197.114-.094.237-.176.122-.081.252-.15.13-.07.266-.127.136-.056.277-.099.141-.043.286-.071.144-.03.291-.044Q2.852 0 2.999 0z" id="path_1"/><path d="M0 8V4c0-1.105.39-2.047 1.172-2.828A3.854 3.854 0 014 0h28c1.105 0 2.047.39 2.828 1.172A3.854 3.854 0 0136 4v28c0 1.105-.39 2.047-1.172 2.828A3.854 3.854 0 0132 36H4a3.854 3.854 0 01-2.828-1.172A3.854 3.854 0 010 32V8z" id="path_2"/><path d="M0 0h414v1334H0V0z" id="path_3"/><path d="M14 24.05l-.65 1.31-1.42.19 1 1-.19 1.45 1.26-.69 1.26.69-.26-1.44 1-1-1.42-.19-.58-1.32zm6.12-2.54l-.64 1.3-1.43.19 1 1-.23 1.4 1.26-.65 1.3.65-.26-1.4 1-1-1.43-.23-.57-1.26zm-12.24 0l-.65 1.3L5.8 23l1 1-.26 1.4 1.3-.65 1.26.65-.23-1.4 1-1-1.43-.23-.56-1.26zm16.62-4.08l-.65 1.3-1.42.2 1 1-.26 1.44 1.3-.69 1.26.69-.26-1.44 1-1-1.42-.2-.55-1.3zm-21 0l-.62 1.3-1.42.2 1 1-.26 1.44 1.26-.69 1.3.69-.26-1.44 1-1-1.42-.2-.58-1.3zM25.93 12l-.62 1.3-1.43.23 1 1-.22 1.47 1.27-.68 1.29.68-.22-1.45 1-1-1.43-.23-.64-1.32zM2.07 12l-.64 1.3-1.43.24 1 1L.78 16l1.29-.68 1.27.68-.23-1.44 1-1-1.43-.23L2.07 12zM24.5 5.91l-.65 1.27-1.42.23 1 1-.26 1.44 1.3-.69 1.26.69-.26-1.44 1-1-1.42-.23-.55-1.27zm-21 0l-.62 1.27-1.42.23 1 1-.26 1.44 1.26-.69 1.3.69-.26-1.44 1-1-1.42-.23-.58-1.27zm16.62-4l-.64 1.31-1.43.19 1 1-.23 1.44 1.26-.69 1.3.69-.26-1.44 1-1-1.43-.19-.57-1.31zm-12.24 0l-.65 1.31-1.43.14 1 1-.26 1.44 1.3-.69 1.26.69-.23-1.44 1-1-1.43-.19-.56-1.26zM14 0l-.65 1.31-1.42.19 1 1-.19 1.5L14 3.3l1.26.7L15 2.51l1-1-1.42-.19L14 0z" id="path_4"/><path d="M3 4.57a.76.76 0 01.75.76.75.75 0 11-1.5 0A.76.76 0 013 4.57zM3 .76a1.49 1.49 0 011.5 1.53v.38h-3v-.38A1.49 1.49 0 013 .76zM3 0A2.26 2.26 0 00.75 2.29v.38a.76.76 0 00-.75.76v3.81A.76.76 0 00.75 8h4.5A.76.76 0 006 7.24V3.43a.76.76 0 00-.75-.76v-.38A2.26 2.26 0 003 0z" id="path_5"/></defs><g id="es-logo"><path d="M2.999 0h30.002q.147 0 .294.014.147.015.291.044.145.028.286.071.14.043.277.1.136.056.266.125.13.07.252.151.123.082.236.176.114.093.219.197.104.105.197.218.094.114.176.237.081.122.15.252.07.13.127.266.056.136.099.277.043.141.071.286.03.144.044.291.014.147.014.294v30.002q0 .147-.014.294-.015.147-.044.291-.028.145-.071.286-.043.14-.1.277-.056.136-.125.266-.07.13-.151.252-.082.123-.176.236-.093.114-.197.219-.105.104-.218.197-.114.094-.237.176-.122.081-.252.15-.13.07-.266.127-.136.056-.277.099-.141.043-.286.071-.144.03-.291.044-.147.014-.294.014H2.999q-.147 0-.294-.014-.147-.015-.291-.044-.145-.028-.286-.071-.14-.043-.277-.1-.136-.056-.266-.125-.13-.07-.252-.151-.123-.082-.237-.176-.113-.093-.218-.197-.104-.105-.197-.218-.094-.114-.176-.237-.081-.122-.15-.252-.07-.13-.127-.266-.056-.136-.099-.277-.043-.141-.071-.286-.03-.144-.044-.291Q0 33.148 0 33.001V2.999q0-.147.014-.294.015-.147.044-.291.028-.145.071-.286.043-.14.1-.277.056-.136.125-.266.07-.13.151-.252.082-.123.176-.237Q.774.983.878.878q.105-.104.218-.197.114-.094.237-.176.122-.081.252-.15.13-.07.266-.127.136-.056.277-.099.141-.043.286-.071.144-.03.291-.044Q2.852 0 2.999 0z" id="Background" fill="none" fill-rule="evenodd" stroke="none"/><g clip-path="url(#mask_1)"><g id="Слой_2"><g id="Слой_1-2"><g id="Mask-group"><path d="M0 8V4c0-1.105.39-2.047 1.172-2.828A3.854 3.854 0 014 0h28c1.105 0 2.047.39 2.828 1.172A3.854 3.854 0 0136 4v28c0 1.105-.39 2.047-1.172 2.828A3.854 3.854 0 0132 36H4a3.854 3.854 0 01-2.828-1.172A3.854 3.854 0 010 32V8z" id="Rectangle" fill="none" fill-rule="evenodd" stroke="none"/><g clip-path="url(#mask_2)"><g id="Group" transform="translate(-40 -1157)"><g id="Mask-group"><path d="M0 0h414v1334H0V0z" id="Rectangle" fill="none" fill-rule="evenodd" stroke="none"/><g clip-path="url(#mask_3)"><g id="Group" transform="translate(40 1157)"><path d="M0 0h36v36H0V0z" id="Rectangle" fill="#1565C0" fill-rule="evenodd" stroke="none"/></g></g></g></g></g></g><g id="Mask-group" transform="translate(4 4)"><path d="M14 24.05l-.65 1.31-1.42.19 1 1-.19 1.45 1.26-.69 1.26.69-.26-1.44 1-1-1.42-.19-.58-1.32zm6.12-2.54l-.64 1.3-1.43.19 1 1-.23 1.4 1.26-.65 1.3.65-.26-1.4 1-1-1.43-.23-.57-1.26zm-12.24 0l-.65 1.3L5.8 23l1 1-.26 1.4 1.3-.65 1.26.65-.23-1.4 1-1-1.43-.23-.56-1.26zm16.62-4.08l-.65 1.3-1.42.2 1 1-.26 1.44 1.3-.69 1.26.69-.26-1.44 1-1-1.42-.2-.55-1.3zm-21 0l-.62 1.3-1.42.2 1 1-.26 1.44 1.26-.69 1.3.69-.26-1.44 1-1-1.42-.2-.58-1.3zM25.93 12l-.62 1.3-1.43.23 1 1-.22 1.47 1.27-.68 1.29.68-.22-1.45 1-1-1.43-.23-.64-1.32zM2.07 12l-.64 1.3-1.43.24 1 1L.78 16l1.29-.68 1.27.68-.23-1.44 1-1-1.43-.23L2.07 12zM24.5 5.91l-.65 1.27-1.42.23 1 1-.26 1.44 1.3-.69 1.26.69-.26-1.44 1-1-1.42-.23-.55-1.27zm-21 0l-.62 1.27-1.42.23 1 1-.26 1.44 1.26-.69 1.3.69-.26-1.44 1-1-1.42-.23-.58-1.27zm16.62-4l-.64 1.31-1.43.19 1 1-.23 1.44 1.26-.69 1.3.69-.26-1.44 1-1-1.43-.19-.57-1.31zm-12.24 0l-.65 1.31-1.43.14 1 1-.26 1.44 1.3-.69 1.26.69-.23-1.44 1-1-1.43-.19-.56-1.26zM14 0l-.65 1.31-1.42.19 1 1-.19 1.5L14 3.3l1.26.7L15 2.51l1-1-1.42-.19L14 0z" id="Shape" fill="none" fill-rule="evenodd" stroke="none"/><g clip-path="url(#mask_4)"><g id="Group" transform="translate(-44 -1161)"><g id="Mask-group"><path d="M0 0h414v1334H0V0z" id="Rectangle" fill="none" fill-rule="evenodd" stroke="none"/><g clip-path="url(#mask_3)"><g id="Group" transform="translate(44 1161)"><path d="M0 0h28v28H0V0z" id="Rectangle" fill="#FFD54F" fill-rule="evenodd" stroke="none"/></g></g></g></g></g></g><g id="Mask-group" transform="translate(15 14)"><path d="M3 4.57a.76.76 0 01.75.76.75.75 0 11-1.5 0A.76.76 0 013 4.57zM3 .76a1.49 1.49 0 011.5 1.53v.38h-3v-.38A1.49 1.49 0 013 .76zM3 0A2.26 2.26 0 00.75 2.29v.38a.76.76 0 00-.75.76v3.81A.76.76 0 00.75 8h4.5A.76.76 0 006 7.24V3.43a.76.76 0 00-.75-.76v-.38A2.26 2.26 0 003 0z" id="Shape" fill="none" fill-rule="evenodd" stroke="none"/><g clip-path="url(#mask_5)"><g id="Group" transform="translate(-55 -1171)"><g id="Mask-group"><path d="M0 0h414v1334H0V0z" id="Rectangle" fill="none" fill-rule="evenodd" stroke="none"/><g clip-path="url(#mask_3)"><g id="Group" transform="translate(55 1171)"><path d="M0 0h6v8H0V0z" id="Rectangle" fill="#FFF" fill-rule="evenodd" stroke="none"/></g></g></g></g></g></g></g></g></g></g></svg>