<?xml version="1.0" encoding="UTF-8" standalone="no"?>
<!-- Created with Inkscape (http://www.inkscape.org/) -->

<svg
   xmlns:dc="http://purl.org/dc/elements/1.1/"
   xmlns:cc="http://creativecommons.org/ns#"
   xmlns:rdf="http://www.w3.org/1999/02/22-rdf-syntax-ns#"
   xmlns:svg="http://www.w3.org/2000/svg"
   xmlns="http://www.w3.org/2000/svg"
   xmlns:sodipodi="http://sodipodi.sourceforge.net/DTD/sodipodi-0.dtd"
   xmlns:inkscape="http://www.inkscape.org/namespaces/inkscape"
   version="1.1"
   id="svg2"
   xml:space="preserve"
   width="43.439449"
   height="42.366013"
   viewBox="0 0 43.439449 42.366012"
   sodipodi:docname="GitHub-Mark.svg"
   inkscape:version="0.92.4 (unknown)"><metadata
     id="metadata8"><rdf:RDF><cc:Work
         rdf:about=""><dc:format>image/svg+xml</dc:format><dc:type
           rdf:resource="http://purl.org/dc/dcmitype/StillImage" /><dc:title></dc:title></cc:Work></rdf:RDF></metadata><defs
     id="defs6"><clipPath
       clipPathUnits="userSpaceOnUse"
       id="clipPath20"><path
         d="M 0,551.986 H 530.973 V 0 H 0 Z"
         id="path18"
         inkscape:connector-curvature="0" /></clipPath></defs><sodipodi:namedview
     pagecolor="#ffffff"
     bordercolor="#666666"
     borderopacity="1"
     objecttolerance="10"
     gridtolerance="10"
     guidetolerance="10"
     inkscape:pageopacity="0"
     inkscape:pageshadow="2"
     inkscape:window-width="1366"
     inkscape:window-height="715"
     id="namedview4"
     showgrid="false"
     inkscape:zoom="2.5652825"
     inkscape:cx="21.05396"
     inkscape:cy="69.578053"
     inkscape:window-x="0"
     inkscape:window-y="0"
     inkscape:window-maximized="1"
     inkscape:current-layer="g16" /><g
     id="g10"
     inkscape:groupmode="layer"
     inkscape:label="GitHub-Mark"
     transform="matrix(1.3333333,0,0,-1.3333333,-181.75977,592.72742)"><path
       d="M 0,0 H 530.973 V 275.986 H 0 Z"
       style="fill:#231f20;fill-opacity:1;fill-rule:nonzero;stroke:none"
       id="path12"
       inkscape:connector-curvature="0" /><g
       id="g14"><g
         id="g16"
         clip-path="url(#clipPath20)"><g
           id="g22"
           transform="translate(152.6083,444.5454)"><path
             style="fill:#1b1817;fill-opacity:1;fill-rule:evenodd;stroke:none;stroke-width:1.33333325"
             d="m 203.47852,143.25391 c -11.99334,0 -21.71875,9.7247 -21.71875,21.7207 0,9.596 6.22284,17.73604 14.85351,20.60937 1.08667,0.19867 1.48242,-0.47282 1.48242,-1.04882 0,-0.51467 -0.0186,-1.88136 -0.0293,-3.69336 -6.04134,1.312 -7.31446,-2.91211 -7.31446,-2.91211 -0.988,-2.508 -2.41211,-3.17578 -2.41211,-3.17578 -1.972,-1.348 0.14844,-1.32032 0.14844,-1.32032 2.18,0.15467 3.32617,2.23829 3.32617,2.23829 1.93734,3.31866 5.08494,2.35935 6.32227,1.80468 0.19733,-1.404 0.75757,-2.36163 1.3789,-2.90429 -4.82266,-0.548 -9.89453,-2.41171 -9.89453,-10.73438 0,-2.37067 0.847,-4.30946 2.23633,-5.82812 -0.224,-0.54934 -0.96844,-2.75738 0.21289,-5.74805 0,0 1.82333,-0.58411 5.97266,2.22656 1.732,-0.48133 3.59083,-0.72247 5.4375,-0.73047 1.844,0.008 3.70283,0.24914 5.4375,0.73047 4.14667,-2.81067 5.9668,-2.22656 5.9668,-2.22656 1.18533,2.99067 0.43884,5.19871 0.21484,5.74805 1.392,1.51866 2.23437,3.45745 2.23437,5.82812 0,8.344 -5.0793,10.17946 -9.91796,10.7168 0.78,0.67066 1.47461,1.99677 1.4746,4.02343 0,2.90267 -0.0254,5.24504 -0.0254,5.95704 0,0.58133 0.38953,1.25692 1.49219,1.04492 8.624,-2.87867 14.8418,-11.01214 14.8418,-20.60547 0,-11.996 -9.7247,-21.7207 -21.7207,-21.7207 z"
             transform="matrix(0.75000002,0,0,-0.75000002,-152.6083,107.44061)"
             id="path24"
             inkscape:connector-curvature="0" /></g></g></g></g></svg>
