<?xml version="1.0" encoding="utf-8"?>
<!-- Svg Vector Icons : http://www.onlinewebfonts.com/icon -->
<!DOCTYPE svg PUBLIC "-//W3C//DTD SVG 1.1//EN" "http://www.w3.org/Graphics/SVG/1.1/DTD/svg11.dtd">
<svg version="1.1" xmlns="http://www.w3.org/2000/svg" xmlns:xlink="http://www.w3.org/1999/xlink" x="0px" y="0px" viewBox="0 0 1000 1000" enable-background="new 0 0 1000 1000" xml:space="preserve">
<metadata> Svg Vector Icons : http://www.onlinewebfonts.com/icon </metadata>
<g><g transform="translate(0.000000,642.000000) scale(0.100000,-0.100000)"><path d="M4783.8,6326c-262.1-55.5-518-252.8-644.4-496.4c-118.7-226.6-112.5-98.7-107.9-2235.4l4.6-1907l40.1-103.3c61.7-158.8,134.1-266.7,252.8-379.2c126.4-120.2,282.1-208.1,433.2-243.6c157.2-37,410.1-23.1,558.1,29.3c297.5,104.8,541.1,362.3,630.5,667.5c24.7,81.7,27.7,208.1,32.4,1321.2l4.6,1230.2l33.9-9.2c78.6-24.7,325.3-138.7,440.9-205c767.7-444,1307.3-1216.4,1450.7-2076.6c50.9-306.8,43.2-778.5-17-1079.2C7646.6-406.3,6643-1342.1,5380.4-1503.9c-999-127.9-2016.4,265.2-2647,1025.2c-300.6,362.3-545.7,889.5-632.1,1356.6c-41.6,223.5-57,641.3-32.4,855.6C2144.5,2377.9,2405,2940.6,2849,3420c80.2,87.9,168,189.6,194.2,226.6c206.6,302.2,222,750.8,33.9,1066.8c-198.9,336.1-584.3,519.5-977.4,465.6c-262.1-35.5-450.2-141.8-676.8-380.8C726.2,4062.9,266.8,3087.1,135.8,2061.9c-35.5-272.9-46.2-764.6-24.7-1031.3C248.3-583.6,1125.5-2005,2489.8-2820.5c178.8-106.4,632.1-325.3,814-391.6c354.6-131,760-231.2,1125.4-276c95.6-12.3,326.8-20,562.7-20c534.9,0,886.4,47.8,1364.3,185c567.3,163.4,1259.5,522.6,1726.6,895.7c175.8,141.8,499.5,457.9,650.6,638.2c494.9,587.4,861.8,1319.6,1043.7,2084.3c81.7,337.6,111,585.8,120.2,994.4c9.2,399.3-4.6,635.2-58.6,952.7C9627.6,3506.4,8890.7,4691.9,7867,5421.1c-541.1,385.4-1196.3,676.8-1829.9,814C5574.6,6336.8,5016.6,6376.9,4783.8,6326z"/></g></g>
</svg>
