<svg xmlns="http://www.w3.org/2000/svg" viewBox="0 0 215.19 125.66"><path fill="#fff" d="M20.69 123.73v1.93H0v-1.57l17.34-21.63H.22v-2h20.07v1.57L3 123.73zm21.08-23.24H44v25.17h-2.23zm171.18 0h2.24v25.17H213zm-142.71 2h-9.12v-2h20.47v2h-9.12v23.2h-2.23zm33.36 11.08l-5.5 5.55v6.57h-2.23v-25.2h2.23v15.74l15.51-15.74h2.64l-11.09 11.45L117 125.66h-2.73zm87.5-13.05v25.17h-1.88l-16.94-21.28v21.28h-2.23v-25.2h1.88l16.89 21.23v-21.23zm-49.34 0h-2.24l-11.66 25.17h2.28l10.5-22.89 10.5 22.89h2.33zm-1.16 16.34a1.29 1.29 0 101.29 1.29 1.29 1.29 0 00-1.29-1.32zM107.59 0a37.67 37.67 0 1037.67 37.67A37.71 37.71 0 00107.59 0zm8 19l-31.78-7.88A35.19 35.19 0 0191.22 6l29.68 7.35zm-12.84-1.12L73.77 49A35.57 35.57 0 0172 39.39l22.08-23.67zm2.22.55l9.06 2.24L78.7 58.54a35.51 35.51 0 01-4.16-7.49zm-17.88 34l45 11.12a36 36 0 01-8 5.72L81.28 58.71zm1.57-1.68l5.09-5.45L138 56.26a36 36 0 01-4.3 5.65zm17.58-4.42l29-31.09a35.62 35.62 0 014.36 6.82L115 48.51zm10.94 2.71l23.34-25a35.46 35.46 0 012.42 8.96l-17 18.23zM134 13.72L104.06 45.8l-8.71-2.15 32.78-35.12a36.79 36.79 0 015.87 5.19zm-7.56-6.31l-4 4.26-28.36-7a35.54 35.54 0 0132.34 2.75zM82.1 12.76l9.75 2.41L72 36.48a35.48 35.48 0 0110.1-23.72zm-1.87 47.75l40.94 10.13a35.61 35.61 0 01-40.94-10.13zm58.82-6l-10.9-2.7 15-16.12c0 .67.06 1.35.06 2a35.51 35.51 0 01-4.16 16.77z"/></svg>