<svg id="Livello_1" data-name="Livello 1" xmlns="http://www.w3.org/2000/svg" viewBox="0 0 841.89 356.61"><defs><style>.cls-1,.cls-10,.cls-11,.cls-12,.cls-2,.cls-3,.cls-4,.cls-5,.cls-6,.cls-7,.cls-8,.cls-9{fill:none;}.cls-1{stroke:#3d7aac;stroke-width:2px;}.cls-1,.cls-10,.cls-11,.cls-12,.cls-2,.cls-20,.cls-3,.cls-4,.cls-5,.cls-6,.cls-7,.cls-8,.cls-9{stroke-miterlimit:10;}.cls-2{stroke:#467eae;stroke-width:1.93px;}.cls-3{stroke:#4e82b0;stroke-width:1.85px;}.cls-4{stroke:#5585b2;stroke-width:1.78px;}.cls-5{stroke:#5c89b4;stroke-width:1.71px;}.cls-6{stroke:#638eb7;stroke-width:1.64px;}.cls-7{stroke:#6a92b9;stroke-width:1.56px;}.cls-8{stroke:#7096bb;stroke-width:1.49px;}.cls-9{stroke:#779bbe;stroke-width:1.42px;}.cls-10{stroke:#7d9fc0;stroke-width:1.35px;}.cls-11{stroke:#84a4c3;stroke-width:1.27px;}.cls-12{stroke:#8aa9c5;stroke-width:1.2px;}.cls-13,.cls-20{fill:#3d7aac;}.cls-14{fill:#8aa9c5;}.cls-15{fill:#719dc5;}.cls-16{fill:#40403f;}.cls-17{font-size:44.17px;fill:#231f20;font-family:Roboto-Light, Roboto;font-weight:300;}.cls-18{letter-spacing:-0.01em;}.cls-19{letter-spacing:-0.04em;}.cls-20{stroke:#fff;opacity:0.15;}</style></defs><title>ECHO - logo definitivo - vettoriale</title><ellipse class="cls-1" cx="563.45" cy="152.03" rx="60.76" ry="74.28"/><ellipse class="cls-2" cx="579.22" cy="152.07" rx="60.76" ry="74.28"/><ellipse class="cls-3" cx="594.99" cy="152.11" rx="60.76" ry="74.28"/><ellipse class="cls-4" cx="610.76" cy="152.15" rx="60.76" ry="74.28"/><ellipse class="cls-5" cx="626.53" cy="152.2" rx="60.76" ry="74.28"/><ellipse class="cls-6" cx="642.3" cy="152.24" rx="60.76" ry="74.28"/><ellipse class="cls-7" cx="658.07" cy="152.28" rx="60.76" ry="74.28"/><ellipse class="cls-8" cx="673.84" cy="152.32" rx="60.76" ry="74.28"/><ellipse class="cls-9" cx="689.62" cy="152.36" rx="60.76" ry="74.28"/><ellipse class="cls-10" cx="705.39" cy="152.4" rx="60.76" ry="74.28"/><ellipse class="cls-11" cx="721.16" cy="152.45" rx="60.76" ry="74.28"/><ellipse class="cls-12" cx="736.93" cy="152.49" rx="60.76" ry="74.28"/><path class="cls-13" d="M45.62,101.08a3.91,3.91,0,0,1-1.17-2.88V79.81A3.58,3.58,0,0,1,45.62,77,3.86,3.86,0,0,1,48.3,76h99.18a3.94,3.94,0,0,1,2.89,1.17,3.72,3.72,0,0,1,1.18,2.67V98.2a4.07,4.07,0,0,1-1.18,2.78,3.78,3.78,0,0,1-2.89,1.28H48.3A3.69,3.69,0,0,1,45.62,101.08Zm0,123.35a3.71,3.71,0,0,1-1.17-2.67V123a3.58,3.58,0,0,1,1.17-2.77,3.86,3.86,0,0,1,2.68-1.07H66.47A3.65,3.65,0,0,1,70.31,123v15.4c0,2.7,1.86,4.06,5.56,4.06h53.87a3.73,3.73,0,0,1,2.57,1,3.17,3.17,0,0,1,1.07,2.46v18.38a3.17,3.17,0,0,1-1.07,2.46,3.73,3.73,0,0,1-2.57,1H75.23q-4.92,0-4.92,4.49v23.3a4.44,4.44,0,0,0,4.07,4.06h73.53a3.67,3.67,0,0,1,3.85,3.85v18.39a3.9,3.9,0,0,1-1.07,2.67,3.59,3.59,0,0,1-2.78,1.17H48.3A3.71,3.71,0,0,1,45.62,224.43Z"/><path class="cls-14" d="M211.61,217.27A76.82,76.82,0,0,1,174,150.78a75.58,75.58,0,0,1,10.15-38.37,76.76,76.76,0,0,1,27.47-28A72.35,72.35,0,0,1,249.45,74a73.11,73.11,0,0,1,30.89,6.63,76.09,76.09,0,0,1,24.9,18.17,2.9,2.9,0,0,1,.86,2.14,2.85,2.85,0,0,1-1.07,2.35l-15.39,13.25a3.26,3.26,0,0,1-2.35,1.07,2.61,2.61,0,0,1-2.14-1.07A48.51,48.51,0,0,0,269,104.93a47.28,47.28,0,0,0-19.56-4.17A46.7,46.7,0,0,0,225,107.5a50,50,0,0,0-17.85,18.27,50.57,50.57,0,0,0,0,50A50,50,0,0,0,225,194.07a47.9,47.9,0,0,0,43.08,3,49,49,0,0,0,15.6-10.58,6,6,0,0,1,4.06-1.71,4.07,4.07,0,0,1,3,1.07l4.06,3.42,8.55,7.7a4.72,4.72,0,0,1,2.14,4.06,3.49,3.49,0,0,1-1.07,2.56,74.37,74.37,0,0,1-54.94,23.95A72.91,72.91,0,0,1,211.61,217.27Z"/><path class="cls-15" d="M339.29,279.17a10.42,10.42,0,0,1-.91-4.5V82.17a10.34,10.34,0,0,1,.91-4.49c.62-1.29,1.33-1.93,2.15-1.93h21.22c.82,0,1.53.64,2.14,1.93a10.2,10.2,0,0,1,.92,4.49v192.5a10.28,10.28,0,0,1-.92,4.5c-.61,1.28-1.32,1.92-2.14,1.92H341.44C340.62,281.09,339.91,280.45,339.29,279.17Zm79.78-54.74a3.71,3.71,0,0,1-1.17-2.67V170.24a3.67,3.67,0,0,0-3.85-3.85H368.43a4,4,0,0,1-3.85-3.85V144.37a3.58,3.58,0,0,1,1.18-2.78,3.86,3.86,0,0,1,2.67-1.07h45.62a3.6,3.6,0,0,0,2.78-1.17,3.88,3.88,0,0,0,1.07-2.67V79.6a4,4,0,0,1,3.84-3.85h21.81a4,4,0,0,1,3.85,3.85V221.76a3.9,3.9,0,0,1-1.07,2.67,3.6,3.6,0,0,1-2.78,1.17H421.74A3.69,3.69,0,0,1,419.07,224.43Z"/><path class="cls-16" d="M483.31,183a78.92,78.92,0,0,1-2.67-58.58,77.44,77.44,0,0,1,37.73-43,76.19,76.19,0,0,1,29.71-7.81h.43a3.74,3.74,0,0,1,2.88,1.29,5.49,5.49,0,0,1,1.39,3.2V96.7c0,2.71-1.49,4.21-4.49,4.49a48.53,48.53,0,0,0-18.38,5.45,44.82,44.82,0,0,0-14.75,12.29,49,49,0,0,0-11.54,31.85,49.59,49.59,0,0,0,4.48,20.63,47.85,47.85,0,0,0,12.83,17,49.14,49.14,0,0,0,52.16,7.05,45.06,45.06,0,0,0,16.67-13,47.53,47.53,0,0,0,8.66-15.07,50.19,50.19,0,0,0,2.89-16.78A49.21,49.21,0,0,0,596,127.91a9.5,9.5,0,0,1-1.07-4.27,6.31,6.31,0,0,1,2.57-4.92q1.71-1.06,6.63-4.49c3.27-2.28,5.34-3.7,6.2-4.28a6.07,6.07,0,0,1,3.2-1.06,5.49,5.49,0,0,1,5.13,3.2,76.7,76.7,0,0,1,10.26,38.69A78,78,0,0,1,624.39,177a74.48,74.48,0,0,1-13.25,23.19A68.72,68.72,0,0,1,585,220.79,78.13,78.13,0,0,1,552.14,228a75.68,75.68,0,0,1-26.08-4.59A68.86,68.86,0,0,1,503.62,210,76.23,76.23,0,0,1,483.31,183Z"/><text class="cls-17" transform="translate(373.53 276.72)">DIG<tspan class="cls-18" x="70.87" y="0">I</tspan><tspan class="cls-19" x="82" y="0">T</tspan><tspan x="106.67" y="0">AL HUB</tspan></text><circle class="cls-20" cx="551.2" cy="151.48" r="76.53"/></svg>