<svg xmlns="http://www.w3.org/2000/svg" viewBox="0 0 474.3 60.1"><defs><style>.cls-1{fill:#fff}.cls-2,.cls-3{fill:none}.cls-2{stroke:#fff;stroke-linecap:round;stroke-linejoin:round;stroke-width:5px}</style></defs><g id="Layer_2" data-name="Layer 2"><g id="Layer_1-2" data-name="Layer 1"><path class="cls-1" d="M81 61.2l-1.8-12.6H59.4l-7 12.6h-9.9l29.6-50.4h9.8l8 50.4zm-5.4-40.4v-2.4h-.2a21.7 21.7 0 01-1.6 3.8L63.1 41.5h15.1l-2.4-19a7.2 7.2 0 01-.2-1.7zM125.2 33.7a13 13 0 00-3.3-1.9 12.3 12.3 0 00-4.4-.8 10.4 10.4 0 00-6.1 2 14.7 14.7 0 00-4.5 5.7 17.8 17.8 0 00-1.8 7.8c0 2.9.7 5.1 2 6.6a6.9 6.9 0 005.6 2.3 13.4 13.4 0 004.6-.9 20.1 20.1 0 004.4-2.2l-1.5 7.2a21.8 21.8 0 01-9.9 2.6c-4.3 0-7.6-1.3-10.1-3.9s-3.6-6.3-3.6-10.9a25.4 25.4 0 012.7-11.6 20.6 20.6 0 017.6-8.4 20.1 20.1 0 0110.9-3 22.2 22.2 0 015.1.6 17.4 17.4 0 014 1.6zM161.1 34.1a10 10 0 01-6 9.5c-4.1 2.1-10.2 3.2-18.4 3.3V48a7.4 7.4 0 002.2 5.6 8.5 8.5 0 006.1 2.1 20.1 20.1 0 005.7-1 31.7 31.7 0 005.6-2.5l-1.4 7a24.7 24.7 0 01-11.7 2.9c-4.7 0-8.3-1.3-10.9-3.9s-4-6.3-4-11a25.3 25.3 0 012.7-11.5 20.8 20.8 0 017.5-8.3 18.2 18.2 0 0110.4-3.1q5.7 0 9 2.7a8.6 8.6 0 013.2 7.1zm-8.2.2a3.6 3.6 0 00-1.3-2.8 5.4 5.4 0 00-3.5-1.1 9.6 9.6 0 00-6.8 3.1 15.6 15.6 0 00-4 7.5c10.4 0 15.6-2.2 15.6-6.7zM173.1 61.8c-2.6 0-4.6-.6-6-1.9a7.4 7.4 0 01-2-5.5 56.7 56.7 0 011.3-8.5c.9-4.1 3.6-16.8 8.1-38h8.6l-8.5 40a30.4 30.4 0 00-.8 4.5c0 1.8 1 2.7 3.1 2.7a8.3 8.3 0 003.2-.6l-1.3 6.5a21.8 21.8 0 01-5.7.8zM193.8 61.8c-2.6 0-4.6-.6-5.9-1.9a7 7 0 01-2-5.5 45.8 45.8 0 011.3-8.5c.9-4.1 3.6-16.8 8.1-38h8.5l-8.5 40a25.8 25.8 0 00-.7 4.5q0 2.7 3 2.7a7.9 7.9 0 003.2-.6l-1.3 6.5a21.2 21.2 0 01-5.7.8zM238.8 34.1a10 10 0 01-6 9.5c-4 2.1-10.2 3.2-18.4 3.3V48a7.3 7.3 0 002.1 5.6 8.5 8.5 0 006.1 2.1 20.1 20.1 0 005.7-1 28.7 28.7 0 005.6-2.5l-1.4 7a24.2 24.2 0 01-11.7 2.9c-4.7 0-8.3-1.3-10.9-3.9s-3.9-6.3-3.9-11a26.5 26.5 0 012.6-11.5 20.8 20.8 0 017.5-8.3 18.7 18.7 0 0110.5-3.1c3.7 0 6.7.9 8.9 2.7a8.6 8.6 0 013.3 7.1zm-8.2.2a3.3 3.3 0 00-1.3-2.8 5.2 5.2 0 00-3.5-1.1 9.7 9.7 0 00-6.8 3.1 14.7 14.7 0 00-3.9 7.5c10.3 0 15.5-2.2 15.5-6.7zM382.1 64h-8.7a28.6 28.6 0 01.3-3.2 22.7 22.7 0 01.4-3.6h-.2a26.2 26.2 0 01-3.8 4.7 12.4 12.4 0 01-3.4 2.2 11.8 11.8 0 01-4.3.8 9.3 9.3 0 01-7.9-3.7c-1.9-2.4-2.9-5.7-2.9-10a25.9 25.9 0 013.1-12.4 20.1 20.1 0 018.2-8.8 24.2 24.2 0 0112-2.9 67 67 0 0113.5 1.7l-5 23.5c-.3 1.6-.6 3.7-.9 6.1a46.6 46.6 0 00-.4 5.6zm-3.3-30a17.7 17.7 0 00-4.8-.5 12.4 12.4 0 00-7.1 2.1 15.2 15.2 0 00-4.9 6.3 22.5 22.5 0 00-1.8 8.9 9.2 9.2 0 001.3 5.4 4.5 4.5 0 004 1.9c2.5 0 4.8-1.3 6.8-3.9a26.6 26.6 0 004.4-10.5zM401.1 64.6a8.1 8.1 0 01-5.9-2 7 7 0 01-2-5.5 13.7 13.7 0 01.4-3.6l5.2-25.5h8.5l-4.7 22.7a30.4 30.4 0 00-.8 4.5c0 1.8 1 2.7 3.1 2.7a8.3 8.3 0 003.2-.6l-1.4 6.5a23.6 23.6 0 01-5.6.8zm9.5-48.8a4.5 4.5 0 01-1.5 3.5 5.3 5.3 0 01-3.7 1.4 4.8 4.8 0 01-3.5-1.3 4 4 0 01-1.5-3.3 4.2 4.2 0 011.6-3.5 5.2 5.2 0 013.7-1.3 5.5 5.5 0 013.5 1.2 4.5 4.5 0 011.4 3.3zM421.8 64.6a8.1 8.1 0 01-5.9-2 6.9 6.9 0 01-2.1-5.4 48.8 48.8 0 011.4-8.5c.9-4.1 3.6-16.8 8.1-38h8.5l-8.5 40a25.8 25.8 0 00-.7 4.5q0 2.7 3 2.7a7.9 7.9 0 003.2-.6l-1.3 6.5a21.2 21.2 0 01-5.7.8zM349.9 4.9l2.6 3.2c-.1.4-.1.7-.2 1.1s-.1.4-.2.6l-11.7 54.1H327l10.4-44-28.8 29.7-4.2-.6-15.2-27.3c-3.6 14-7.1 28-10.7 42.1l-11.6.2 14-54.8c.3-1.5.7-2.9 1.5-3.4h10.2c-.3-.8-.2-.6-.1-.4s1.3 2.5 1.9 3.8l.4.6c4.5 8.9 9.1 17.7 13.7 26.5l25.7-26.5.6-.6 4.2-4.3h10.9z" transform="translate(0 -4.8)"/><path class="cls-1" d="M352.5 8.3a2.9 2.9 0 00-.2.9h-71.4l.4-1.8a3.5 3.5 0 013.3-2.6h65.1a2.9 2.9 0 012.8 3.5z" transform="translate(0 -4.8)"/><path class="cls-2" d="M245.8 12.2h25.6M256 26.2h11.8M261.3 40.2h3.1"/><path class="cls-3" d="M0 14.5h42.5v41.87H0zM431.8 5.3h42.5v41.87h-42.5z"/></g></g></svg>