<svg width="100" height="152" viewBox="0 0 100 152" fill="none" xmlns="http://www.w3.org/2000/svg">
<path d="M94.529 65.6525C92.4014 63.8288 5.77666 3.34341 1.82536 0.91184L0.609497 0V14.8934C0.609497 19.7565 3.04112 21.2763 6.08059 23.7078L6.68843 24.0118C10.9437 27.0513 72.6449 69.9077 80.8515 75.6827C72.6449 81.4577 10.0319 124.922 6.08059 127.354C1.21745 130.393 0.913462 132.521 0.913462 136.776V151.062C0.913462 151.062 93.0092 86.9288 94.8329 85.409C99.0882 82.3696 100 78.4182 100 75.9867V74.163C100 71.1235 98.1764 68.0841 94.529 65.6525Z" fill="white"/>
<path d="M40.4248 82.3687C42.8564 82.3687 45.288 81.4569 47.7195 79.6332C50.759 77.5056 53.4946 75.6819 53.4946 75.6819L54.4064 75.074L53.4946 74.4661C53.1907 74.1622 12.7657 46.1991 8.51046 43.4636C6.68679 41.9438 4.25523 41.6399 2.7355 42.5517C1.21577 43.4636 0 44.9833 0 47.4149V56.8372L0.303965 57.1412C0.607912 57.4451 28.267 76.5937 33.7381 80.2411C36.1697 81.7608 38.2972 82.3687 40.4248 82.3687Z" fill="white"/>
</svg>
