<svg xmlns="http://www.w3.org/2000/svg" xmlns:xlink="http://www.w3.org/1999/xlink" viewBox="0 0 621 171" fill="#fff" fill-rule="evenodd" stroke="#000" stroke-linecap="round" stroke-linejoin="round"><use xlink:href="#C" x=".5" y=".5"/><defs><linearGradient id="A" x1="0%" y1="0%" x2="100%" y2="100%"><stop offset="0%" stop-color="#1578b0"/><stop offset="100%" stop-color="#1c80b5"/></linearGradient><linearGradient id="B" x1="0%" y1="0%" x2="100%" y2="100%"><stop offset="0%" stop-color="#1578b0"/><stop offset="100%" stop-color="#1b7db3"/></linearGradient></defs><symbol id="C" overflow="visible"><path fill="url(#A)" stroke="url(#B)" d="M0 0h620v170H0z"/><path d="M193.729 65.303h10.52v42.084h-10.52V65.303zm11.573-11.897c0 2.05-.459 3.521-1.376 4.411s-2.536 1.335-4.856 1.335-3.939-.445-4.856-1.335-1.376-2.361-1.376-4.411c0-1.996.458-3.453 1.376-4.37s2.536-1.375 4.856-1.375 3.938.458 4.856 1.375 1.376 2.374 1.376 4.37zm7.527 53.981v-28.65c0-2.643.378-4.91 1.132-6.798s1.916-3.413 3.48-4.572 3.561-2.01 5.989-2.55 5.314-.809 8.66-.809c6.69 0 11.559 1.119 14.608 3.359s4.572 6.029 4.572 11.37v28.649h-10.52V80.032c0-1.241-.081-2.32-.243-3.237s-.526-1.686-1.092-2.307-1.43-1.079-2.59-1.375-2.738-.445-4.734-.445-3.575.149-4.734.445-2.037.756-2.63 1.375-.971 1.389-1.133 2.307-.243 1.996-.243 3.237v27.354h-10.52zm70.49-.001h-6.555c-3.399 0-6.191-.243-8.376-.728s-3.912-1.335-5.18-2.549-2.144-2.846-2.63-4.897-.728-4.613-.728-7.688V55.51l10.52-1.699v11.492h15.134l-1.699 8.66H270.37v16.995c0 1.619.094 2.941.283 3.966s.54 1.821 1.052 2.388 1.241.944 2.185 1.132 2.145.283 3.602.283h7.526l-1.7 8.66zm17.642-17.48c0 1.942.108 3.534.324 4.775s.66 2.212 1.335 2.913 1.605 1.187 2.792 1.457 2.751.405 4.694.405h6.474l8.983-.162-1.619 8.093-4.047.122-3.439.04h-6.839c-3.83 0-6.987-.431-9.469-1.295s-4.438-2.104-5.868-3.723-2.428-3.601-2.994-5.948-.85-5.032-.85-8.053v-4.532c0-3.237.296-6.097.89-8.578s1.632-4.573 3.116-6.272 3.48-2.981 5.989-3.844 5.679-1.295 9.509-1.295c3.562 0 6.515.391 8.862 1.174s4.235 1.875 5.665 3.277a11.73 11.73 0 0 1 3.035 4.977c.594 1.915.89 4.006.89 6.272v1.376c0 1.835-.108 3.332-.324 4.492s-.58 2.064-1.093 2.711a3.67 3.67 0 0 1-1.982 1.295c-.809.216-1.807.324-2.995.324h-21.042zm8.741-17.966c-1.835 0-3.318.149-4.451.445s-2.023.836-2.671 1.619-1.079 1.835-1.294 3.156-.324 3.008-.324 5.059h17.401v-1.862c0-1.564-.135-2.887-.405-3.966s-.728-1.942-1.376-2.589-1.538-1.12-2.671-1.417-2.535-.445-4.208-.445zm44.432 25.411c1.942 0 3.507-.149 4.694-.445s2.131-.796 2.832-1.497 1.173-1.646 1.417-2.833.364-2.698.364-4.532v-3.965l-.242-5.827c-.162-1.511-.567-2.698-1.214-3.561s-1.592-1.457-2.833-1.78-2.914-.486-5.018-.486-3.777.162-5.018.486-2.185.916-2.832 1.78-1.052 2.05-1.215 3.561-.242 3.453-.242 5.827v1.619l.283 5.826c.189 1.511.593 2.698 1.214 3.561s1.551 1.457 2.792 1.78 2.914.486 5.018.486zm9.307 5.503c-1.079.863-2.455 1.565-4.127 2.105s-3.911.809-6.717.809c-3.507 0-6.434-.405-8.781-1.214s-4.236-2.037-5.665-3.682-2.455-3.709-3.075-6.191-.93-5.369-.93-8.66v-2.267c0-3.183.283-6.002.85-8.457s1.605-4.519 3.116-6.191 3.548-2.941 6.111-3.804 5.84-1.295 9.833-1.295c4.046 0 7.365.445 9.954 1.335s4.627 2.145 6.111 3.764 2.495 3.574 3.034 5.868.81 4.842.81 7.648v20.88c0 3.237-.364 6.015-1.092 8.335s-1.902 4.209-3.521 5.665-3.696 2.522-6.232 3.197-5.611 1.012-9.226 1.012h-6.555a208.71 208.71 0 0 1-3.925-.041l-5.058-.122 1.699-8.417 4.087.122 3.399.04h5.867c1.835 0 3.386-.148 4.654-.445s2.306-.809 3.116-1.537 1.389-1.74 1.74-3.035.526-2.914.526-4.856v-.567zm29.62 4.532H382.54V79.708c0-2.698.378-4.977 1.133-6.839s1.862-3.359 3.318-4.491 3.237-1.956 5.341-2.469 4.505-.769 7.203-.769h5.261l4.289.08-1.7 8.741-3.561-.122-3.237-.04c-1.726 0-3.075.162-4.046.485s-1.727.796-2.267 1.417-.876 1.403-1.012 2.346-.202 2.065-.202 3.359v25.979zm39.09-43.378c3.615 0 6.69.324 9.226.971s4.613 1.739 6.231 3.277 2.792 3.601 3.521 6.191 1.092 5.827 1.092 9.712v4.37c0 3.884-.364 7.121-1.092 9.712s-1.902 4.654-3.521 6.191-3.695 2.63-6.231 3.277-5.611.972-9.226.972c-3.669 0-6.772-.324-9.307-.972s-4.614-1.74-6.232-3.277-2.792-3.602-3.521-6.191-1.092-5.827-1.092-9.712v-4.37c0-3.884.364-7.122 1.092-9.712s1.902-4.654 3.521-6.191 3.696-2.63 6.232-3.277 5.638-.971 9.307-.971zm9.388 19.99c0-2.482-.135-4.492-.405-6.029s-.742-2.712-1.417-3.521-1.619-1.349-2.832-1.619-2.792-.405-4.734-.405-3.534.135-4.775.405-2.198.809-2.873 1.619-1.146 1.982-1.417 3.521-.405 3.548-.405 6.029v4.774c0 2.483.136 4.479.405 5.989s.742 2.671 1.417 3.48 1.632 1.348 2.873 1.619 2.833.405 4.775.405 3.52-.136 4.734-.405 2.158-.81 2.832-1.619 1.146-1.969 1.417-3.48.405-3.507.405-5.989v-4.774zm114.03 15.781v-6.555c0-.971-.094-1.794-.283-2.469s-.581-1.228-1.173-1.659-1.43-.742-2.509-.931-2.509-.283-4.29-.283H546.1c-3.075 0-5.152.378-6.231 1.133s-1.619 2.131-1.619 4.127v1.538c0 1.726.498 3.007 1.497 3.844s2.846 1.254 5.544 1.254h10.278zm10.197 0c0 2.859-.647 4.843-1.942 5.949s-3.535 1.659-6.717 1.659h-13.192c-5.773 0-9.859-1.079-12.261-3.237s-3.602-5.261-3.602-9.307v-1.78c0-4.479 1.322-7.729 3.966-9.753s6.772-3.034 12.383-3.034c2.805 0 5.139.229 7 .687s3.251.985 4.168 1.578v-1.457c0-1.457-.149-2.671-.445-3.642s-.797-1.739-1.498-2.306-1.659-.958-2.873-1.174-2.738-.324-4.572-.324h-3.399l-3.764.041-3.764.08-3.399.041 1.7-8.498 5.665-.122 7.446-.04c6.582 0 11.411 1.16 14.487 3.479s4.613 5.962 4.613 10.926v20.232zm32.049 7.607h-6.556c-3.399 0-6.191-.243-8.376-.728s-3.911-1.335-5.179-2.549-2.144-2.846-2.63-4.897-.728-4.613-.728-7.688V55.51l10.521-1.699v11.492H600l-1.7 8.66h-13.434v16.995c0 1.619.094 2.941.283 3.966s.54 1.821 1.052 2.388 1.241.944 2.185 1.132 2.144.283 3.601.283h7.527l-1.7 8.66zM459.99 93.139V78.575c0-2.698.378-4.977 1.133-6.838s1.875-3.359 3.359-4.492 3.305-1.956 5.463-2.469 4.64-.769 7.446-.769c2.913 0 5.49.405 7.728 1.214s3.98 1.969 5.22 3.48c1.241-1.511 2.994-2.671 5.261-3.48s4.882-1.214 7.85-1.214c2.752 0 5.206.256 7.365.769s3.979 1.335 5.463 2.469 2.603 2.63 3.359 4.492 1.133 4.141 1.133 6.838v28.811h-10.521V80.032c0-1.241-.067-2.32-.202-3.237s-.445-1.686-.93-2.307-1.228-1.079-2.226-1.375-2.333-.445-4.006-.445c-1.564 0-2.805.135-3.723.405s-1.646.674-2.185 1.214-.89 1.214-1.052 2.023-.243 1.753-.243 2.832v21.166h-10.52V80.032c0-1.241-.068-2.32-.203-3.237s-.458-1.686-.971-2.307-1.255-1.079-2.226-1.375-2.293-.445-3.966-.445-2.994.149-3.966.445-1.699.756-2.184 1.375-.796 1.389-.931 2.307-.202 1.996-.202 3.237v13.106H459.99z" fill-rule="nonzero" stroke="none"/><path d="M63.806 23.741v24.041c-13.082 7.573-21.89 21.723-21.89 37.915 0 24.162 19.617 43.779 43.78 43.779s43.78-19.617 43.78-43.779c0-16.192-8.808-30.342-21.89-37.915V23.741c25.511 9.024 43.806 33.371 43.806 61.956 0 36.258-29.437 65.696-65.696 65.696S20 121.955 20 85.697c0-28.585 18.296-52.932 43.806-61.956zm10.945-2.831a66.05 66.05 0 0 1 21.89 0v22.389a43.79 43.79 0 0 0-10.945-1.381c-3.778 0-7.447.48-10.945 1.381V20.91zm0 84.854v-51.03a32.72 32.72 0 0 1 21.89 0v51.031a32.74 32.74 0 0 1-21.89 0z" stroke="none"/></symbol></svg>