<svg width="150" height="150" viewBox="0 0 150 150" fill="none" xmlns="http://www.w3.org/2000/svg">
<path fill-rule="evenodd" clip-rule="evenodd" d="M50.0103 4.271V31.7165C35.0758 40.3621 25.0202 56.5163 25.0202 75.0011C25.0202 102.585 47.4153 124.98 75.0005 124.98C102.586 124.98 124.981 102.585 124.981 75.0011C124.981 56.5163 114.925 40.3621 99.9906 31.7165V4.271C129.114 14.5732 150 42.3675 150 75.0011C150 116.394 116.394 150.001 75.0005 150.001C33.6068 150.001 0 116.394 0 75.0011C0 42.3675 20.8876 14.5732 50.0103 4.271V4.271Z" fill="white"/>
<path fill-rule="evenodd" clip-rule="evenodd" d="M62.5054 1.03876C66.5695 0.356253 70.7432 0 75.0005 0C79.2577 0 83.4315 0.356253 87.4955 1.03876V26.598C83.5018 25.5686 79.3139 25.0211 75.0005 25.0211C70.687 25.0211 66.4991 25.5686 62.5054 26.598V1.03876V1.03876Z" fill="white"/>
<path fill-rule="evenodd" clip-rule="evenodd" d="M62.5054 97.91V39.6527C66.4148 38.268 70.6204 37.5161 75.0005 37.5161C79.3805 37.5161 83.5861 38.268 87.4955 39.6527V97.91C83.5861 99.2937 79.3805 100.047 75.0005 100.047C70.6204 100.047 66.4148 99.2937 62.5054 97.91V97.91Z" fill="white"/>
</svg>
