<svg version="1.0" xmlns="http://www.w3.org/2000/svg" viewBox="0 0 1200 326"><path d="M169 14.4c0 .2.8 1 1.8 1.7 1.5 1.3 1.6 1.2.3-.4s-2.1-2.1-2.1-1.3zm104.4 216.8-1.9 2.3 2.3-1.9c2.1-1.8 2.7-2.6 1.9-2.6-.2 0-1.2 1-2.3 2.2z" fill="none"/><path d="M913.8 96.7c.7.3 1.6.2 1.9-.1.4-.3-.2-.6-1.3-.5-1.1 0-1.4.3-.6.6zm-554.5 30c3.7.2 9.6.2 13 0 3.4-.2.4-.3-6.8-.3-7.1 0-9.9.1-6.2.3zm591.5 0c3.4.2 9 .2 12.5 0 3.4-.2.6-.3-6.3-.3-6.9 0-9.7.1-6.2.3zm155.5 0c3.7.2 9.6.2 13 0 3.4-.2.4-.3-6.8-.3-7.1 0-9.9.1-6.2.3zm-359.5 99c.6.2 1.8.2 2.5 0 .6-.3.1-.5-1.3-.5-1.4 0-1.9.2-1.2.5z" fill-opacity=".13"/><g stroke-width="0"><path d="M130.1 4C92.5 14.1 37.7 65.9 13.5 114c-8 16-10.8 25.4-10.9 37.5-.1 13.4 2.3 18.8 12.5 27.1 4.6 3.8 6.8 6.2 6.4 7.2-1.9 5.1-2.7 11.4-2.3 19.5.3 8.2.8 10.2 4.1 17.1 6.9 14.6 22.4 26.4 37.5 28.4 3.4.5 6.4 1.1 6.5 1.3.2.2 2.2 3.9 4.5 8.2 16.8 31.4 46.7 52.5 85.7 60.4 13.6 2.7 42.5 2.4 56.2-.5 22.3-4.8 40.5-13.7 56.6-27.5 18.9-16.2 33.8-46.1 33.9-68 0-10.2-2.6-15.8-9.2-19.2-1.8-1-3.1-3.1-4.7-8-2-6.1-2.1-7.1-.8-9.5 2.6-5.1 3.6-11.6 2.5-16.6-2.3-10.2-10.7-17.3-26.7-22.4l-8.8-2.8-.6-14.4c-.9-20.2-4.5-32.7-11.9-41.1l-3.3-3.8 3.5-3.7C256.3 70.3 265 52.5 265 40.5c0-25.4-28-35.4-65.7-23.4-5 1.6-11.5 4-14.5 5.3l-5.3 2.3-9.5-9c-5.3-5-11.5-9.9-14-11-6.5-2.9-16.7-3.2-25.9-.7zM159 21.6c4.4 4.2 8 8.2 8 8.9 0 .6-1.2 1.7-2.7 2.4-5.6 2.6-28.7 18.5-41 28.3-20.6 16.4-34.1 31.1-47.7 52-5.8 9-17 30.7-20.1 39.2-1.3 3.3-2.7 5.1-4.4 5.9-10.4 4.2-15.6 7.1-19.6 11.1-5.2 5.2-5.7 5.2-11.7-1.1-4.7-4.8-5.9-8.2-5.9-15.9 0-14.3 8.5-34.4 24.2-57.4 30.5-44.6 78-80.8 106.2-81h6.7l8 7.6zm26.7 39.6-3.2 3.3 3.5.3c8.3.7 27 6.3 27 8.1 0 .4-3.9.1-8.7-.7-12.9-2.1-34-1.1-46.3 2.1-12.8 3.3-24.8 8.2-34.2 13.8-4.3 2.6-7.8 4.4-7.8 4 0-1.2 17.1-17.4 23.5-22.2 6-4.6 14.6-9.9 15.9-9.9.3 0-.1 1.6-.9 3.6-2.6 6.2-2 6.4 6.3 2.2 8.6-4.4 18.8-7.6 24.4-7.7l3.6-.1-3.1 3.2zm50 41.3c5.7 3.8 7.8 11.1 8.7 31.6.4 7.9 1.2 15.8 1.7 17.6 1.1 3.4 3.3 4.6 14.4 7.8 22.5 6.4 26.8 18.1 11.7 31.5-16.9 15.1-54.5 24.6-83 21.1-8.5-1-9.7-1-13.6.7-5.5 2.5-8.8 7.7-9.4 14.7-.5 6.7 1 11.4 5.3 15.8 7.1 7.3 18.8 10.9 35.5 10.9 25.8-.1 52-9.3 66.1-23.3 2.7-2.8 4.8-5.3 4.6-5.5-.2-.2-3.9 1.6-8.2 4.1-19 10.8-37.4 16.4-56.5 17.2-14.5.6-24.6-1.1-31.6-5.2-3.9-2.3-8.3-7.9-7.1-9.1.3-.3 3.3.3 6.8 1.2 12.1 3.4 42.2 1.9 43.6-2.1.2-.6-5.7-1-15.5-1.1-12.8 0-17.4-.4-24.9-2.3-9.4-2.3-10.9-3.5-7.6-6.2 1.2-1.1 6.4-1.4 23.2-1.5 18 0 23.3-.4 31.6-2.1 16.8-3.5 31.3-9.3 42.6-16.9 6.4-4.3 6.8-3.9 9.4 6.7 1.5 6 2 6.9 4 6.9 6.3 0 7.4 8.8 3 22.8-7.4 23.5-30 43-59 50.8-9.4 2.5-29.6 3-39.1 1-25.1-5.5-43.3-22.3-47.9-44.3-3.7-17.6.6-37 11.2-50 2.4-2.9 4.3-6.2 4.3-7.4 0-1.1-2.9-5.5-6.6-9.7-3.6-4.2-7.9-10.6-9.7-14.2-3-6-3.2-7.2-3.2-16.5 0-8.9.3-10.6 2.7-15.6 3.2-6.4 8.4-12 14.8-15.7 4.5-2.7 4.6-2.7 25.5-2.7 23.4 0 23 .1 33.2-7.7 7.8-6 13.4-6.9 19-3.3zM70.3 170.6c10.9 3.7 18.8 15.2 20.8 30.2 1.7 12.7-.7 24-6.6 31-10.1 12-31.1 9.4-44.4-5.5-6.5-7.3-9.1-14-9.1-23.8 0-15.5 6.4-25.6 19.9-31.1 6.6-2.8 12.9-3 19.4-.8z"/><path d="M226.4 130.4c-2.7 2-2.4 11.5.7 18.5 2.1 5 2.3 5.2 5.8 4.9l3.6-.3.3-5.3c.4-6.8-2.1-15.6-5-17.7-2.7-1.8-2.9-1.9-5.4-.1zm-53.5 21c-8 2.8-13.8 9.6-7.1 8.3 17-3.3 15.5-3.3 23.6-.5 7 2.4 7.6 2.4 7.6.8 0-2.5-6.2-7.7-10.7-8.9-5-1.4-9-1.3-13.4.3zm59.3 10.8c-1.3 1.3-1.6 5.6-.6 8.2.3.9 1.7 1.6 3 1.6 4 0 5.9-6.3 2.8-9.4-1.9-1.9-3.6-2-5.2-.4zm-50.6 1.8c-3.4 1.1-6.6 3.8-6.6 5.7 0 1.6-.3 1.6 6.5-.2 3.4-.8 7.5-1.2 10.1-.8 5 .7 5.9-.7 2-3.2-3-2-8.3-2.7-12-1.5zm31.8 6.5c-.9 2.2.1 4.2 3.1 6.1 2.1 1.3 3.1 1.5 5 .6 2.9-1.3 3.1-2.9.9-6-1.8-2.6-8.1-3.1-9-.7zM54.5 182.9c-2.2 1-4.8 2.7-5.7 3.7-4.6 5.2-6.6 16.4-2.9 16.4 1.3 0 2.4-1.4 3.6-4.5 3.3-8.9 13-10.2 17.1-2.3 1.5 2.8 1.5 3.5-.1 9.1-2.1 7.5-1.4 11.8 2.6 15.1 3.6 3.1 6.8 3.3 9.9.8 2.6-2.1 1.9-4.6-.9-3.7-2.4.7-4.9-.3-6.1-2.5-.7-1.3-.2-3.9 1.6-9.1 4-11.6 1.8-19-7-23-5.1-2.3-7.1-2.3-12.1 0zm564.5-85c-11.3 3.5-15.8 11-11.1 18.7 6.2 10.2 30.3 10.6 38.1.7 4.9-6.3.6-15.5-8.7-18.7-4.8-1.7-14-2-18.3-.7zm285.5.6c-7.6 2.9-12 9.2-10.4 14.8 2 7.1 10 11.2 21.4 11.1 20-.2 28-16.4 12.2-24.6-5.4-2.8-17.5-3.4-23.2-1.3zm-248.5 62V223h35V98h-35v62.5zm139 0V223h35v-26.3c0-29.3.8-34.7 6-39.9 3.8-3.7 8.7-3.8 12.1-.2l2.4 2.6.3 31.9.3 31.9H886v-31.9c0-35.4-.9-43.4-5.7-52.2-5.2-9.6-13.2-13.9-25.7-13.9-12.7 0-22 6.7-28.8 20.5-1.8 3.6-3.9 6.5-4.6 6.5-1 0-1.2-.7-.8-2.3 5-17.1 7.3-34.1 5.9-44.7l-.8-6.5-15.3-.3-15.2-.3v62.6zm-398.6-33.1c-6.1 2.9-10.4 7.8-15 17.3-1.9 4-3.9 7.3-4.4 7.3-1.3 0-1.2-1.3.5-8.5 1.6-6.3 1.9-12.3.9-14.9-.5-1.3-2.6-1.6-13-1.6H353v96h34.9l.3-29.3c.3-29.1.3-29.2 2.8-33.7 4.1-7.2 11.3-8.1 14.7-1.7 1.5 2.8 1.8 7.3 2.1 33.9l.4 30.8h34.7l.3-29.3c.3-28.1.4-29.4 2.6-33.4 3.5-6.7 9-8.3 13.1-4 3.3 3.6 4.1 11.4 4.1 40.4V223h34.1l-.3-35.3c-.4-32.9-.5-35.6-2.6-41.7-4.5-13.6-12.6-20-26.4-20.8-5.8-.3-9 0-12.2 1.2-6.1 2.3-13.5 10.5-17.1 18.8-3.2 7.4-5.5 8.8-5.5 3.4 0-4.4-2.4-11.2-5.5-15.2-6.2-8.1-20.7-10.9-31.1-6zm144.1-1.7c-5.7.9-18 4.1-23.7 6.3l-5.8 2.1v28.8l6.8-3.1c10-4.6 16.4-6.6 25-7.9 12.2-1.8 19.3 1.2 20.8 8.9l.7 3.2h-13.1c-19.5 0-28.4 2.4-36.6 10-5.6 5.2-8.6 11.5-9.3 19.9-.8 9.3 1.4 16.6 6.8 22.1 6.4 6.6 11.6 8.5 22.9 8.5 8.4 0 10.2-.3 15.2-2.8 7-3.4 12.2-9.1 16-17.4 1.6-3.5 3.3-6.1 3.8-5.8.6.3 1 4.6 1 9.4 0 4.9.3 10.3.6 12l.7 3.1h26.9l-.5-30.3c-.3-16.6-1-32.2-1.5-34.7-3.3-14.7-10.4-24.6-21.4-29.5-5.8-2.7-7.4-2.9-19.3-3.1-7.1-.1-14.3 0-16 .3zm23.5 59.1c0 .5-1.4 2.9-3 5.4-4.3 6.4-9.9 10-16.4 10.6-4.8.4-5.5.2-7.5-2.4-3.6-4.6-.4-11.4 6.3-13.3 4-1.2 20.6-1.4 20.6-.3zm168.4-57.9c-21.8 6.2-33.6 24.8-32.1 50.6 1.3 22.1 11.6 37.6 29.6 44.7 4.7 1.8 7.6 2.2 18.1 2.2 14.2.1 21.3-1.8 30.8-8l5.2-3.4v-15.5c0-8.5-.2-15.5-.5-15.5s-3.2 1.3-6.3 2.9c-18.1 9.1-39.3 8.6-45.2-1.1-5.6-9.3-2.2-18.9 8.4-23.3 8.4-3.5 25.9-1.4 37.8 4.6l5.8 2.9v-34l-6.1-3.1c-3.4-1.7-9.1-3.7-12.8-4.5-9.1-1.9-25.1-1.7-32.7.5zm256.1 0c-5.6 2.5-12.7 10.8-16 18.6-1.6 3.6-3.4 6.5-4.2 6.5-.7 0-1.3-.1-1.3-.3 0-.1.7-2.7 1.5-5.7s1.5-8.5 1.5-12.3V127h-26v96h35v-26.3c0-28.8.7-33.8 5.7-39.7 3.4-4.1 8.5-3.9 11.7.3 2 2.7 2.1 4.2 2.4 34.3l.3 31.4h34.8l.3-28.3c.3-30.2.7-32.8 6-38.4 4.2-4.5 10.9-2.1 12.8 4.5.6 2.1 1 15.9 1 33V223l17.3-.2 17.2-.3.3-25c.5-43.2-1.5-55.3-10.7-64.5-5.6-5.6-11.9-8-21-8-12.4 0-20.2 5.8-26.9 19.7-1.9 4-3.8 7.3-4.2 7.3-.4 0-1.3-2.7-1.9-6.1-1.7-9.7-8-17.7-15.8-19.8-5.9-1.7-15.3-1.3-19.8.8zm155.7 1.2c-7 3.5-11.4 8.3-16.1 17.6-1.7 3.5-3.6 6.3-4.1 6.3-1.3 0-1.3-.7.5-8.6.9-3.6 1.5-8.7 1.3-11.3l-.3-4.6-12.7-.3-12.8-.3V249h35v-37.1l3.1 3.6c1.8 2 5.3 4.8 7.8 6.3 4 2.4 5.7 2.7 13.1 2.7 7.1 0 9.4-.4 14.2-2.7 15.5-7.2 23.8-26.1 22.5-51.3-1.5-29.4-15-45.5-38.2-45.5-6 0-8.2.5-13.3 3.1zm11.1 28.9c4.5 3.9 6.2 9.9 6.1 22.1 0 15.2-4.1 22.9-12.1 22.9-7.6 0-12.2-5.5-14.3-17-3.7-20.7 8.9-38.1 20.3-28zM610 175.1V223h35v-95.8l-4.7 1.4c-2.5.8-8.3 1.4-12.8 1.4s-10.3-.6-12.8-1.4l-4.7-1.4v47.9zm287.4-46.8c-.2.7-.3 22.1-.2 47.7l.3 46.5 17.3.3 17.2.2v-95.8l-3.7 1.4c-5 1.7-21.7 1.7-26.6 0-2.8-1.1-4-1.1-4.3-.3z"/></g><path d="M886.4 197c0 14 .2 19.8.3 12.8.2-7.1.2-18.5 0-25.6-.1-7-.3-1.2-.3 12.8z" fill-opacity=".25"/><path d="M172 17.4c0 .2.8 1 1.8 1.7 1.5 1.3 1.6 1.2.3-.4s-2.1-2.1-2.1-1.3zm-69.6 60.8-2.9 3.3 3.3-2.9c3-2.8 3.7-3.6 2.9-3.6-.2 0-1.6 1.5-3.3 3.2z" fill-opacity=".01"/><path d="M655.5 160c0 34.4.1 48.4.2 31.2.2-17.1.2-45.3 0-62.5-.1-17.1-.2-3.1-.2 31.3zm378.9 38.5c0 13.2.2 18.5.3 11.7.2-6.8.2-17.6 0-24-.1-6.4-.3-.9-.3 12.3zm-891.3 33.1c0 1.1.3 1.4.6.6.3-.7.2-1.6-.1-1.9-.3-.4-.6.2-.5 1.3zm57.7 5.1c.7.3 1.6.2 1.9-.1.4-.3-.2-.6-1.3-.5-1.1 0-1.4.3-.6.6z" fill-opacity=".06"/><path d="M464.8 124.7c.7.3 1.6.2 1.9-.1.4-.3-.2-.6-1.3-.5-1.1 0-1.4.3-.6.6zm91 0c.7.3 1.6.2 1.9-.1.4-.3-.2-.6-1.3-.5-1.1 0-1.4.3-.6.6zm543.7 63.3c0 33.8.1 47.7.2 30.7.2-16.9.2-44.5 0-61.5-.1-16.9-.2-3-.2 30.8zm-549.7-24.3c.7.3 1.6.2 1.9-.1.4-.3-.2-.6-1.3-.5-1.1 0-1.4.3-.6.6zm584.4 14.3c0 1.4.2 1.9.5 1.2.2-.6.2-1.8 0-2.5-.3-.6-.5-.1-.5 1.3z" fill-opacity=".31"/><path d="M462.4 195.5c0 14.8.2 21.1.3 13.8.2-7.2.2-19.4 0-27-.1-7.6-.3-1.7-.3 13.2zm-55 1c0 14.3.2 20 .3 12.7.2-7.3.2-19 0-26-.1-7-.3-1-.3 13.3zm700.9 53.2c4.8.2 12.6.2 17.5 0 4.8-.1.8-.3-8.8-.3-9.6 0-13.6.2-8.7.3z" fill-opacity=".44"/><path d="M175 20.4c0 .2.8 1 1.8 1.7 1.5 1.3 1.6 1.2.3-.4s-2.1-2.1-2.1-1.3zm-52.1 64.3-2.4 2.8 2.8-2.4c2.5-2.3 3.2-3.1 2.4-3.1-.2 0-1.4 1.2-2.8 2.7z" fill-opacity=".02"/><path d="m67.4 59.2-1.9 2.3 2.3-1.9c2.1-1.8 2.7-2.6 1.9-2.6-.2 0-1.2 1-2.3 2.2z" fill-opacity=".36"/><path d="M182.8 70.7c.7.3 1.6.2 1.9-.1.4-.3-.2-.6-1.3-.5-1.1 0-1.4.3-.6.6zm4 0c.7.3 1.6.2 1.9-.1.4-.3-.2-.6-1.3-.5-1.1 0-1.4.3-.6.6zm477.5 27c4.8.2 12.6.2 17.5 0 4.8-.1.8-.3-8.8-.3-9.6 0-13.6.2-8.7.3zm138 0c4.2.2 11.2.2 15.5 0 4.2-.1.7-.3-7.8-.3s-12 .2-7.7.3zM609.5 175c0 26.1.1 36.8.2 23.8.2-13.1.2-34.5 0-47.5-.1-13.1-.2-2.4-.2 23.7zm276.7-5c0 1.4.2 1.9.5 1.2.2-.6.2-1.8 0-2.5-.3-.6-.5-.1-.5 1.3zm-316 37.5c0 1.6.2 2.2.5 1.2.2-.9.2-2.3 0-3-.3-.6-.5.1-.5 1.8zm-369.4 5.2c.6.2 1.8.2 2.5 0 .6-.3.1-.5-1.3-.5-1.4 0-1.9.2-1.2.5z" fill-opacity=".19"/><path d="M352.5 174.5c0 26.4.1 37.1.2 23.7.2-13.4.2-35 0-48-.1-13-.2-2.1-.2 24.3zm580 .5c0 26.1.1 36.8.2 23.8.2-13.1.2-34.5 0-47.5-.1-13.1-.2-2.4-.2 23.7zm-422.1-26c0 8 .2 11.2.3 7.2.2-3.9.2-10.5 0-14.5-.1-3.9-.3-.7-.3 7.3zm650.8 29.5c0 1.6.2 2.2.5 1.2.2-.9.2-2.3 0-3-.3-.6-.5.1-.5 1.8zM66.8 239.7c.7.3 1.6.2 1.9-.1.4-.3-.2-.6-1.3-.5-1.1 0-1.4.3-.6.6z" fill-opacity=".38"/></svg>