<svg width="181" height="118" viewBox="0 0 181 118" fill="none" xmlns="http://www.w3.org/2000/svg">
<path d="M36.7163 84.0301C32.0305 84.0301 28.3075 85.8916 25.6757 89.5504C23.8784 86.0842 20.2838 83.9659 16.3683 84.0301C12.6453 83.9017 9.11489 85.5065 6.73988 88.395V87.7531C6.73988 85.8916 5.19934 84.3511 3.33785 84.3511C1.47635 84.3511 0 85.8916 0 87.7531V113.621C0.0641893 115.483 1.66892 116.959 3.53041 116.831C5.26353 116.767 6.67569 115.354 6.73988 113.621V95.7125C8.28043 93.2092 10.5912 90.3848 14.7635 90.3848C18.7433 90.3848 20.2838 92.3105 20.2838 97.3173V113.621C20.348 115.483 21.9528 116.959 23.8142 116.831C25.5474 116.767 26.9595 115.354 27.0237 113.621V95.7125C28.5643 93.2092 30.8751 90.3848 35.0474 90.3848C39.0271 90.3848 40.5677 92.3105 40.5677 97.3173V113.621C40.6319 115.483 42.2366 116.959 44.0981 116.831C45.8312 116.767 47.2434 115.354 47.3075 113.621V96.226C47.4359 90.3206 44.0981 84.0301 36.7163 84.0301Z" fill="white"/>
<path d="M69.0677 84.0303C65.4089 84.0303 61.7502 84.8005 58.4123 86.2769C57.1927 86.7262 56.4224 87.8816 56.4224 89.1654C56.4224 90.7701 57.642 92.0539 59.2468 92.1181H59.311C59.6319 92.1181 59.9529 92.0539 60.2738 91.9897C62.7772 91.0911 65.4089 90.5776 68.1049 90.5776C73.3042 90.5776 75.4867 92.5033 75.5509 97.2533H68.8752C59.8245 97.1891 54.3684 101.04 54.3684 107.588C54.3684 113.942 59.6319 117.28 64.8312 117.28C68.7468 117.409 72.534 116.061 75.5509 113.557V113.622C75.6151 115.483 77.2198 116.959 79.0813 116.831C80.8144 116.767 82.2266 115.355 82.2907 113.622V96.5472C82.2907 90.3208 78.1826 84.0303 69.0677 84.0303ZM66.8853 111.182C63.0981 111.182 61.1083 109.77 61.1083 107.01C61.1083 105.983 61.1083 102.902 69.5813 102.902H75.5509V107.074C73.7536 109 70.4799 111.182 66.8853 111.182Z" fill="white"/>
<path d="M95.1928 71.9629H95.5779C97.632 71.9629 99.3009 73.6318 99.3009 75.6859V75.9426C99.3009 77.9967 97.632 79.6656 95.5779 79.6656H95.1928C93.1387 79.6656 91.4698 77.9967 91.4698 75.9426V75.6859C91.4698 73.6318 93.1387 71.9629 95.1928 71.9629Z" fill="white"/>
<path d="M95.3211 84.2871C93.4596 84.2871 91.9833 85.7635 91.9833 87.6249V87.6891V113.557C92.0475 115.419 93.6522 116.895 95.5137 116.767C97.2468 116.703 98.659 115.291 98.7232 113.557V87.6891C98.7232 85.8276 97.2468 84.2871 95.3211 84.2871Z" fill="white"/>
<path d="M112.46 71C110.598 71 109.122 72.4764 109.122 74.3379V74.402V113.558C109.186 115.419 110.791 116.895 112.652 116.767C114.385 116.703 115.798 115.291 115.862 113.558V74.402C115.862 72.5405 114.385 71 112.524 71C112.46 71 112.46 71 112.46 71Z" fill="white"/>
<path d="M139.227 84.0303C134.412 84.0303 130.433 85.8276 127.737 89.2296C125.426 92.1823 124.142 96.2262 124.142 100.655C124.142 111.054 130.24 117.28 140.382 117.28C145.967 117.28 148.727 115.997 151.294 114.52C152.385 114.007 153.092 112.915 153.22 111.696C153.22 110.027 151.872 108.679 150.267 108.679H150.203C149.754 108.679 149.24 108.743 148.855 109C146.416 110.284 143.72 110.861 141.024 110.797C135.375 110.797 132.037 108.165 131.203 103.159H150.845C152.642 103.223 154.183 101.811 154.247 100.013C154.247 99.9492 154.247 99.885 154.247 99.7566C154.247 88.9728 146.48 84.0303 139.227 84.0303ZM139.227 89.9357C142.051 89.9357 146.801 91.5404 147.443 97.4458H131.01C131.652 92.2465 135.504 89.9357 139.227 89.9357Z" fill="white"/>
<path d="M177.676 84.0303H177.355C174.146 84.0303 171.193 85.5708 168.497 88.5235V87.7532C168.497 85.8917 166.956 84.3512 165.095 84.3512C163.233 84.3512 161.693 85.8917 161.757 87.7532V113.621C161.821 115.483 163.426 116.959 165.288 116.831C167.021 116.767 168.433 115.355 168.497 113.621V95.4559C170.679 92.3107 173.76 90.5775 177.227 90.5775H177.548C179.345 90.7059 180.821 89.358 180.95 87.5607C180.95 87.4965 180.95 87.4323 180.95 87.3681C181.014 85.5708 179.538 84.0303 177.74 83.9661C177.74 84.0303 177.676 84.0303 177.676 84.0303Z" fill="white"/>
<path d="M124.926 0H56.6284C51.3007 0 47 4.30068 47 9.62839V70.8008L60.2872 57.642H124.99C130.318 57.642 134.619 53.3413 134.619 48.0136V9.62839C134.554 4.30068 130.254 0 124.926 0ZM67.4764 43.1352C67.4764 44.5474 66.321 45.7028 64.9089 45.7028C63.4967 45.7028 62.3413 44.5474 62.3413 43.1352V15.8548C62.3413 14.4426 63.4967 13.2872 64.9089 13.2872C66.321 13.2872 67.4764 14.4426 67.4764 15.8548V43.1352ZM79.4157 43.1352C79.4157 44.5474 78.2603 45.7028 76.8481 45.7028C75.4359 45.7028 74.2805 44.5474 74.2805 43.1352V25.098C74.2805 23.6858 75.4359 22.5304 76.8481 22.5304C78.2603 22.5304 79.4157 23.6858 79.4157 25.098V43.1352ZM79.7366 16.8818C79.7366 18.4223 78.517 19.6419 76.9765 19.6419H76.7197C75.1792 19.6419 73.9596 18.4223 73.9596 16.8818V16.6892C73.9596 15.1487 75.1792 13.9291 76.7197 13.9291H76.9765C78.517 13.9291 79.7366 15.1487 79.7366 16.6892V16.8818ZM97.838 45.0609C96.6826 45.6386 95.3988 45.8953 94.0508 45.8953C89.6218 45.8953 87.2468 43.7771 87.2468 39.7332V27.3446H84.936C84.1657 27.3446 83.5238 26.7669 83.5238 25.9967V25.9325C83.5238 25.4831 83.7805 25.0338 84.1657 24.7129L89.8785 19.1284C90.1995 18.8075 90.5846 18.6149 91.034 18.5507C91.8042 18.5507 92.5103 19.1926 92.5103 19.9629V20.0271V22.723H96.6184C97.9022 22.723 98.9292 23.75 98.9292 25.0338C98.9292 26.3176 97.9022 27.3446 96.6184 27.3446H92.5103V39.4122C92.5103 41.1453 93.409 41.2737 94.6286 41.2737C95.1421 41.2737 95.6556 41.2095 96.1049 41.0811C96.4259 40.9528 96.811 40.9528 97.1319 40.8886C98.2873 40.8886 99.2502 41.8514 99.3144 43.071C99.186 43.9055 98.6083 44.7399 97.838 45.0609ZM113.564 41.0811C115.426 41.1453 117.287 40.696 118.956 39.8615C119.277 39.669 119.662 39.6048 119.983 39.6048C121.267 39.6048 122.294 40.5676 122.294 41.8514V41.9156C122.23 42.8143 121.716 43.6487 120.882 44.0338C119.085 45.0609 117.159 45.9595 113.179 45.9595C105.99 45.9595 101.625 41.5305 101.625 34.1487C101.625 25.4831 107.402 22.3379 112.281 22.3379C119.598 22.3379 122.936 28.1791 122.936 33.571C123 34.919 121.909 36.0744 120.561 36.1386C120.497 36.1386 120.433 36.1386 120.368 36.1386H106.889C107.595 39.348 109.906 41.0811 113.564 41.0811Z" fill="#21C16C"/>
<path d="M112.409 26.8952C109.585 26.831 107.21 28.9493 106.953 31.7736H117.929C117.608 28.9493 115.233 26.831 112.409 26.8952Z" fill="#21C16C"/>
</svg>
