<svg width="150" height="160" viewBox="0 0 150 160" fill="none" xmlns="http://www.w3.org/2000/svg">
<path d="M63.4127 0.841673C44.7126 5.86483 17.4582 31.6272 5.42251 55.5494C1.44377 63.5068 0.0512058 68.1819 0.00147158 74.1997C-0.0482627 80.8641 1.14536 83.5497 6.21825 87.6777C8.50603 89.5676 9.60018 90.7612 9.40125 91.2586C8.4563 93.795 8.05842 96.9283 8.25736 100.957C8.40656 105.035 8.65523 106.03 10.2965 109.461C13.7281 116.722 21.4369 122.591 28.9468 123.586C30.6378 123.834 32.1298 124.133 32.1795 124.232C32.279 124.332 33.2737 126.172 34.4176 128.311C42.7729 143.927 57.6435 154.421 77.0398 158.35C83.8037 159.693 98.1769 159.544 104.99 158.101C116.081 155.714 125.133 151.288 133.14 144.424C142.54 136.368 149.95 121.497 150 110.605C150 105.532 148.707 102.747 145.424 101.056C144.529 100.559 143.883 99.5144 143.087 97.0775C142.092 94.0437 142.043 93.5463 142.689 92.3527C143.982 89.8163 144.479 86.5835 143.932 84.0968C142.789 79.0239 138.611 75.4928 130.653 72.9563L126.277 71.5638L125.978 64.4021C125.531 54.3557 123.74 48.139 120.06 43.9613L118.419 42.0714L120.159 40.2312C126.177 33.8155 130.504 24.9628 130.504 18.9947C130.504 6.36218 116.579 1.38875 97.8288 7.35686C95.342 8.15261 92.1093 9.34623 90.6173 9.99278L87.9814 11.1367L83.2566 6.66058C80.6207 4.17387 77.5372 1.73689 76.2938 1.18981C73.0611 -0.25248 67.9882 -0.401683 63.4127 0.841673V0.841673ZM77.7858 9.5949C79.9742 11.6837 81.7646 13.6731 81.7646 14.0213C81.7646 14.3197 81.1678 14.8667 80.4218 15.2149C77.6366 16.508 66.148 24.4157 60.0307 29.2897C49.7855 37.4461 43.0713 44.757 36.3075 55.1515C33.4229 59.6276 27.8527 70.4199 26.3109 74.6473C25.6643 76.2885 24.9681 77.1838 24.1226 77.5816C18.9502 79.6705 16.364 81.1128 14.3747 83.1021C11.7885 85.6883 11.5398 85.6883 8.55576 82.5551C6.21825 80.1678 5.62144 78.4768 5.62144 74.6473C5.62144 67.5353 9.84885 57.5387 17.6571 46.0999C32.8261 23.9184 56.4499 5.91457 70.4749 5.8151H73.8071L77.7858 9.5949ZM91.0649 29.2897L89.4734 30.9309L91.2141 31.0801C95.342 31.4282 104.642 34.2134 104.642 35.1086C104.642 35.3075 102.703 35.1583 100.315 34.7604C93.8998 33.716 83.4058 34.2134 77.2885 35.8049C70.9225 37.4461 64.9544 39.8831 60.2794 42.6682C58.1408 43.9613 56.4001 44.8565 56.4001 44.6576C56.4001 44.0607 64.9047 36.0038 68.0877 33.6166C71.0717 31.3288 75.3489 28.6929 75.9954 28.6929C76.1446 28.6929 75.9457 29.4886 75.5478 30.4833C74.2547 33.5668 74.5531 33.6663 78.6811 31.5774C82.9582 29.3891 88.0311 27.7976 90.8162 27.7479L92.6067 27.6982L91.0649 29.2897V29.2897ZM115.932 49.8299C118.767 51.7198 119.811 55.3504 120.259 65.5459C120.458 69.475 120.856 73.404 121.104 74.2992C121.651 75.9901 122.746 76.5869 128.266 78.1784C139.456 81.3614 141.595 87.1803 134.085 93.8447C125.68 101.355 106.98 106.079 92.8056 104.339C88.5782 103.841 87.9814 103.841 86.0417 104.687C83.3064 105.93 81.6651 108.516 81.3667 111.998C81.118 115.33 81.8641 117.667 84.0026 119.856C87.5338 123.486 93.3527 125.277 101.658 125.277C114.49 125.227 127.52 120.651 134.533 113.689C135.875 112.296 136.92 111.053 136.82 110.953C136.721 110.854 134.881 111.749 132.742 112.992C123.293 118.364 114.142 121.149 104.642 121.547C97.4309 121.845 92.4077 121 88.9263 118.961C86.9867 117.817 84.7984 115.032 85.3952 114.435C85.5444 114.286 87.0364 114.584 88.7771 115.032C94.795 116.722 109.765 115.976 110.461 113.987C110.561 113.689 107.626 113.49 102.752 113.44C96.3865 113.44 94.0987 113.241 90.3686 112.296C85.6936 111.152 84.9476 110.555 86.5888 109.213C87.1856 108.666 89.7718 108.516 98.1272 108.467C107.079 108.467 109.715 108.268 113.843 107.422C122.199 105.681 129.41 102.797 135.03 99.0171C138.213 96.8785 138.412 97.0775 139.705 102.349C140.451 105.333 140.7 105.781 141.694 105.781C144.828 105.781 145.375 110.158 143.186 117.12C139.506 128.808 128.266 138.506 113.843 142.385C109.168 143.629 99.1218 143.877 94.3971 142.883C81.9138 140.147 72.8622 131.792 70.5744 120.85C68.7342 112.097 70.8728 102.449 76.1446 95.9833C77.3382 94.541 78.2832 92.8998 78.2832 92.303C78.2832 91.7559 76.8409 89.5676 75.0007 87.4787C73.2103 85.3899 71.0717 82.2069 70.1765 80.4165C68.6845 77.4324 68.585 76.8356 68.585 72.2103C68.585 67.784 68.7342 66.9385 69.9278 64.4518C71.5193 61.2688 74.1055 58.4837 77.2885 56.6435C79.5265 55.3007 79.5763 55.3007 89.9707 55.3007C101.609 55.3007 101.41 55.3504 106.483 51.4712C110.362 48.4871 113.147 48.0395 115.932 49.8299V49.8299ZM33.6716 83.6989C39.0926 85.5391 43.0216 91.2586 44.0163 98.7187C44.8618 105.035 43.6682 110.655 40.7338 114.136C35.7107 120.104 25.2665 118.811 18.6518 111.401C15.4191 107.77 14.126 104.438 14.126 99.5642C14.126 91.8554 17.309 86.8322 24.0231 84.0968C27.3056 82.7043 30.4388 82.6048 33.6716 83.6989V83.6989Z" fill="white"/>
<path d="M111.307 63.7057C109.964 64.7003 110.113 69.4251 111.655 72.9065C112.699 75.3932 112.799 75.4927 114.54 75.3435L116.33 75.1943L116.479 72.5584C116.678 69.1764 115.435 64.7998 113.992 63.7554C112.65 62.8602 112.55 62.8104 111.307 63.7057ZM84.699 74.1499C80.7202 75.5424 77.8357 78.9243 81.1678 78.2778C89.6227 76.6366 88.8767 76.6366 92.9051 78.0291C96.3865 79.2227 96.6849 79.2227 96.6849 78.427C96.6849 77.1836 93.6014 74.5975 91.3634 74.0007C88.8767 73.3044 86.8873 73.3541 84.699 74.1499ZM114.191 79.5212C113.545 80.1677 113.396 82.3063 113.893 83.5994C114.042 84.047 114.738 84.3951 115.385 84.3951C117.374 84.3951 118.319 81.2619 116.778 79.7201C115.833 78.7751 114.987 78.7254 114.191 79.5212ZM89.0259 80.4164C87.3349 80.9634 85.7434 82.3063 85.7434 83.2512C85.7434 84.047 85.5942 84.047 88.9761 83.1518C90.6671 82.7539 92.7062 82.5549 93.9993 82.7539C96.486 83.102 96.9336 82.4057 94.994 81.1624C93.5019 80.1677 90.866 79.8196 89.0259 80.4164ZM104.841 83.6491C104.394 84.7432 104.891 85.7379 106.383 86.6829C107.428 87.3294 107.925 87.4289 108.87 86.9813C110.312 86.3347 110.412 85.539 109.317 83.9972C108.422 82.7041 105.289 82.4555 104.841 83.6491ZM25.8136 89.8161C24.7195 90.3135 23.4264 91.159 22.9788 91.6563C20.691 94.2425 19.6963 99.8127 21.5365 99.8127C22.183 99.8127 22.7301 99.1165 23.3269 97.5747C24.9681 93.1483 29.7924 92.5018 31.8315 96.4308C32.5775 97.8234 32.5775 98.1715 31.7817 100.957C30.7373 104.687 31.0854 106.825 33.0748 108.466C34.8652 110.008 36.4567 110.108 37.9985 108.864C39.2916 107.82 38.9435 106.577 37.5509 107.024C36.3573 107.372 35.1139 106.875 34.5171 105.781C34.169 105.134 34.4176 103.841 35.3129 101.255C37.3022 95.4858 36.2081 91.8055 31.8315 89.8161C29.295 88.6723 28.3003 88.6723 25.8136 89.8161Z" fill="white"/>
</svg>
