<svg width="189" height="97" viewBox="0 0 189 97" fill="none" xmlns="http://www.w3.org/2000/svg">
<path d="M161.776 1.68494C157.602 3.53831 153.892 7.4304 152.13 11.8785L150.925 14.7512H118.093L113.641 17.5313C108.726 20.682 104.738 27.6322 104.738 33.285C104.738 37.1771 102.79 40.2351 99.1732 42.0885C94.2578 44.5906 92.2174 43.9419 89.7133 39.1231C85.2616 30.4123 74.6887 26.4275 65.4142 29.9489C60.8698 31.7096 55.9543 36.6211 54.4704 40.8838C53.543 43.4785 53.4502 43.4785 46.2161 43.4785H38.8893L37.1272 40.0498C29.2439 24.5741 8.00544 25.1301 1.42059 40.8838C-3.7731 53.2088 5.96506 67.5724 19.413 67.5724C26.5543 67.5724 34.9941 62.0123 37.2199 55.8962L38.3329 52.7454H53.3575L55.3051 56.8229C58.4584 63.3097 65.5997 67.5724 73.2048 67.5724C80.1606 67.5724 88.5076 61.4563 91.1045 54.3208C92.3101 51.1701 100.193 53.2088 103.254 57.5642C104.089 58.6762 104.738 61.0856 104.738 62.939C104.738 68.5918 108.726 75.5419 113.641 78.6927C117.351 81.0094 119.021 81.4727 123.843 81.4727H129.686L132.19 86.1062C135.715 92.593 140.63 95.6511 148.328 96.1144C153.336 96.3924 155.098 96.0217 158.53 94.261C174.111 85.9208 171.05 62.383 153.892 58.3056C144.525 56.0815 133.767 61.6416 131.17 70.0745C129.779 74.7079 116.516 71.5572 115.496 66.4604C115.218 65.2557 114.569 62.0123 114.012 59.3249C113.456 56.5448 111.972 52.8381 110.674 51.1701L108.355 48.112L110.674 45.0539C111.972 43.3859 113.456 39.6791 114.012 36.8991C114.569 34.2117 115.218 30.9683 115.496 29.7636C115.682 28.6515 117.258 26.8908 118.928 25.8715C121.525 24.2034 123.658 24.0181 136.456 24.0181H151.11L152.316 26.9835C153.892 30.5976 157.788 34.675 161.776 36.8064C166.135 39.1231 174.853 38.8451 179.583 36.1577C185.704 32.6363 188.579 27.8175 188.95 20.3114C189.321 13.5465 187.651 8.82043 183.385 4.83568C178.099 -0.075769 168.639 -1.4658 161.776 1.68494ZM177.357 12.8979C180.974 16.9753 180.788 21.4234 176.708 25.5008C174.296 27.9102 172.812 28.6515 170.123 28.6515C165.949 28.6515 160.385 23.7401 160.385 20.0334C160.385 10.3958 171.05 5.9477 177.357 12.8979ZM25.9979 41.2545C29.0584 44.2199 29.8004 47.6486 28.2237 51.4481C26.6471 55.2475 23.4938 57.3789 19.413 57.3789C15.3323 57.3789 12.1789 55.2475 10.5095 51.3554C9.11837 47.834 9.67484 44.7759 12.3644 41.7178C16.3524 37.2697 21.6389 37.0844 25.9979 41.2545ZM76.4508 39.2158C79.7896 40.6985 82.4792 44.6832 82.4792 48.4827C82.4792 49.78 81.1808 52.2821 79.6041 54.1355C77.1 56.9155 76.1726 57.3789 72.5556 57.3789C61.9827 57.3789 59.1076 43.4785 68.9385 39.2158C72.5556 37.6404 72.6483 37.6404 76.4508 39.2158ZM155.098 69.4258C160.663 73.7812 160.014 82.4921 153.8 85.6428C150.09 87.5889 146.009 86.8475 142.578 83.6041C136.642 77.9513 140.908 67.5724 149.07 67.5724C151.296 67.5724 153.614 68.3138 155.098 69.4258Z" fill="#FF6666"/>
</svg>
