<svg width="150" height="121" viewBox="0 0 150 121" fill="none" xmlns="http://www.w3.org/2000/svg">
<path d="M115.637 1.0866C112.948 2.28181 110.558 4.79177 109.422 7.6603L108.645 9.51289H87.49L84.6215 11.3057C81.4542 13.3376 78.8845 17.8197 78.8845 21.4651C78.8845 23.975 77.6295 25.9472 75.2988 27.1424C72.1315 28.7559 70.8167 28.3376 69.2032 25.23C66.3347 19.6125 59.5219 17.0428 53.5458 19.3137C50.6175 20.4491 47.4502 23.6165 46.494 26.3655C45.8964 28.0388 45.8367 28.0388 41.1753 28.0388H36.4542L35.3187 25.8276C30.239 15.8475 16.5538 16.2061 12.3108 26.3655C8.96414 34.3137 15.239 43.5766 23.9044 43.5766C28.506 43.5766 33.9442 39.991 35.3785 36.0468L36.0956 34.0149H45.7769L47.0319 36.6444C49.0637 40.8276 53.6653 43.5766 58.5657 43.5766C63.0478 43.5766 68.4263 39.6324 70.0996 35.0308C70.8765 32.9989 75.9562 34.3137 77.9283 37.1224C78.4661 37.8396 78.8845 39.3934 78.8845 40.5886C78.8845 44.234 81.4542 48.7161 84.6215 50.7479C87.012 52.242 88.0877 52.5408 91.1952 52.5408H94.9602L96.5737 55.5288C98.8446 59.7121 102.012 61.6842 106.972 61.983C110.199 62.1623 111.335 61.9232 113.546 60.7878C123.586 55.4093 121.614 40.23 110.558 37.6005C104.522 36.1663 97.5896 39.7519 95.9163 45.1902C95.0199 48.1782 86.4741 46.1464 85.8167 42.8595C85.6375 42.0826 85.2191 39.991 84.8606 38.2579C84.502 36.4651 83.5458 34.0746 82.7092 32.9989L81.2151 31.0268L82.7092 29.0547C83.5458 27.979 84.502 25.5886 84.8606 23.7958C85.2191 22.0627 85.6375 19.9711 85.8167 19.1942C85.9363 18.477 86.9522 17.3416 88.0279 16.6842C89.7012 15.6085 91.0757 15.489 99.3227 15.489H108.765L109.542 17.4013C110.558 19.732 113.068 22.3615 115.637 23.736C118.446 25.23 124.064 25.0507 127.112 23.3177C131.056 21.0468 132.908 17.9392 133.147 13.0985C133.386 8.736 132.311 5.68819 129.562 3.11847C126.155 -0.0488625 120.06 -0.945277 115.637 1.0866ZM125.677 8.31767C128.008 10.9472 127.888 13.8157 125.259 16.4452C123.705 17.9989 122.749 18.477 121.016 18.477C118.327 18.477 114.741 15.3097 114.741 12.9193C114.741 6.70413 121.614 3.8356 125.677 8.31767ZM28.1474 26.6045C30.1195 28.5169 30.5976 30.728 29.5817 33.1782C28.5657 35.6284 26.5339 37.0029 23.9044 37.0029C21.2749 37.0029 19.243 35.6284 18.1673 33.1185C17.2709 30.8475 17.6295 28.8754 19.3626 26.9033C21.9323 24.0348 25.3386 23.9153 28.1474 26.6045ZM60.6574 25.2898C62.8088 26.246 64.5418 28.8157 64.5418 31.2659C64.5418 32.1025 63.7052 33.7161 62.6892 34.9113C61.0757 36.7041 60.4781 37.0029 58.1474 37.0029C51.3347 37.0029 49.4821 28.0388 55.8167 25.2898C58.1474 24.2738 58.2072 24.2738 60.6574 25.2898ZM111.335 44.7719C114.92 47.5806 114.502 53.1981 110.498 55.23C108.108 56.485 105.478 56.0069 103.267 53.9153C99.4422 50.2699 102.191 43.5766 107.45 43.5766C108.884 43.5766 110.378 44.0547 111.335 44.7719Z" fill="#FF6666"/>
<circle cx="111.649" cy="87.9391" r="3.23207" stroke="#FF6666" stroke-width="2.5"/>
<path d="M42.1315 84.1144C39.3825 85.1304 36.5139 88.2379 35.7968 90.8674C35.0797 93.5567 36.2151 97.4411 38.247 99.2937C39.4422 100.369 39.3825 100.429 37.1116 102.939C31.5538 108.915 34.1833 117.342 42.3108 119.672C52.1115 122.541 61.3745 115.13 58.2669 106.943C57.7291 105.509 56.4741 103.776 55.5777 103.059L53.9044 101.863L55.6375 99.3535C59.1036 94.4531 58.2669 88.477 53.7251 85.4292C51.0956 83.6961 45.1793 83.0387 42.1315 84.1144V84.1144ZM50.1394 89.1343C51.0956 89.6124 51.992 90.4491 52.2311 90.9272C53.3068 93.7359 51.753 98.6363 49.5418 99.2937C48.2869 99.712 43.506 97.6802 41.8924 96.0666C37.7092 91.8833 44.4621 86.1463 50.1394 89.1343ZM49.1235 104.732C54.0837 107.242 54.9801 110.529 51.5737 113.696C48.5857 116.505 43.1474 116.087 40.5777 112.859C38.7251 110.469 39.2629 106.465 41.8327 104.194C43.9243 102.342 44.4024 102.401 49.1235 104.732V104.732ZM13.745 94.2738C12.9084 94.6323 11.3546 95.708 10.3386 96.7837L8.36653 98.6363V97.1423C8.36653 94.8714 7.29084 94.214 3.46614 94.214H0V96.2459C0 98.0387 0.179285 98.3375 1.67331 98.5168L3.28685 98.6961L3.46614 109.334L3.58566 119.911H8.24701L8.48605 112.262C8.7251 103.716 9.44223 101.565 12.7291 99.5925C15.239 98.0387 18.7649 98.0387 20.3187 99.5925C21.3944 100.668 21.5139 101.565 21.5139 109.334C21.5139 119.493 21.753 119.911 26.7729 119.911H29.8805V117.521C29.8805 115.369 29.7012 115.13 28.4462 115.13C27.012 115.13 27.0119 115.13 26.7729 107.182C26.5339 98.0985 25.757 95.8873 22.4104 94.4531C20.0797 93.4969 15.9562 93.4371 13.745 94.2738V94.2738ZM76.494 94.2738C75.6574 94.6323 74.1036 95.708 73.0876 96.7837L71.1155 98.6363V97.1423C71.1155 94.9312 70.0398 94.214 66.5139 94.214H63.3466V96.3057C63.3466 98.1582 63.5259 98.3973 64.8406 98.3973H66.3347V119.971L68.9044 119.792L71.4143 119.612L71.7131 111.545C72.012 102.7 72.6693 100.967 75.9562 99.2339C78.2271 98.0985 82.1116 98.1582 83.1275 99.3535C83.7251 100.071 84.0239 102.999 84.263 109.274C84.6215 119.553 84.8008 119.911 89.761 119.911H92.6295V117.521C92.6295 115.369 92.51 115.13 91.1355 115.13H89.6414V107.66C89.6414 99.0547 88.9841 96.6642 85.9363 94.8116C83.7849 93.4969 79.1235 93.2578 76.494 94.2738ZM129.622 95.2897C120.179 100.19 120.239 113.935 129.741 118.716C138.884 123.377 149.94 117.162 150 107.302C150 101.684 147.55 97.5606 142.709 95.1702C138.347 93.0188 133.924 93.0188 129.622 95.2897V95.2897ZM140.916 99.3535C146.056 102.7 145.817 112.083 140.498 114.832C138.227 115.967 134.343 115.967 132.072 114.832C127.171 112.262 126.394 103.955 130.757 100.011C133.267 97.7399 137.928 97.4411 140.916 99.3535ZM106.972 96.3057C106.972 98.1582 107.151 98.3973 108.466 98.3973H109.96V107.84C109.96 119.373 110.199 119.911 115.1 119.911H118.327V117.521C118.327 115.369 118.207 115.13 116.833 115.13H115.339V105.808C115.339 100.549 115.1 96.0068 114.741 95.3495C114.203 94.4531 113.426 94.214 110.558 94.214H106.972V96.3057ZM98.6056 117.222V119.911H103.386V114.533H98.6056V117.222Z" fill="#333366"/>
</svg>
