<svg width="150" height="150" viewBox="0 0 150 150" fill="none" xmlns="http://www.w3.org/2000/svg">
<path d="M0 49.8047H50.0953V99.9H0V49.8047Z" fill="white"/>
<path d="M0 49.8047H50.0953V99.9H0V49.8047Z" fill="#99E1F4"/>
<path d="M50.0954 99.9045H99.9V149.709H50.0954V99.9045Z" fill="white"/>
<path d="M50.0954 99.9045H99.9V149.709H50.0954V99.9045Z" fill="#99E1F4"/>
<path d="M0 149.712H50.0953V150H0V149.712ZM0 99.907H50.0953V149.712H0V99.907Z" fill="#1A82E2"/>
<path d="M50.0954 0H99.9V49.8047H50.0954V0ZM99.9047 50.0953H150V99.9H99.9047V50.0953Z" fill="#00B3E3"/>
<path d="M50.0954 99.9047H99.9V49.8047H50.0954V99.9047Z" fill="#009DD9"/>
<path d="M99.9046 0H150V49.8047H99.9046V0Z" fill="#1A82E2"/>
<path d="M99.9046 49.8047H150V50.093H99.9046V49.8047Z" fill="#1A82E2"/>
</svg>
