<svg width="120" height="193" viewBox="0 0 120 193" fill="none" xmlns="http://www.w3.org/2000/svg">
<path d="M90.9434 145.844C103.621 152.743 120 158.577 120 158.577C120 158.577 109.847 133.335 96.665 104.166C101.265 77.858 90.3825 66.8075 80.7905 57.1033C69.0669 45.2676 67.3279 34.4415 67.3279 34.4415C67.3279 34.4415 62.7283 38.929 60.6528 43.5287C45.6758 35.4512 35.6911 20.4742 35.2984 0C35.0741 0.168281 12.4122 10.2651 11.3464 38.7607C11.2342 41.902 11.4586 45.0432 12.0756 48.1284L9.71968 51.2696C5.62484 57.3277 4.16639 64.8443 5.68093 72.0243L5.06389 75.1655C4.50295 78.2506 5.23218 81.448 7.08327 83.9722C-0.09673 95.9202 -1.89173 110.392 2.03483 123.743C5.62483 137.317 15.5534 151.116 24.9772 158.184C34.1765 165.084 44.61 170.188 55.6605 173.329C66.5987 176.807 84.4926 178.21 85.5584 192.121C87.129 192.009 88.6997 191.504 90.0459 190.662C95.0383 187.689 96.8333 182.136 97.4503 177.761C98.7966 178.77 99.5819 181.687 99.5819 181.687C102.723 174.62 99.6941 166.654 99.6941 166.654L101.489 167.608C100.255 159.418 96.5528 151.789 90.7751 145.787L90.9434 145.844Z" fill="white"/>
<path d="M80.3413 103.378C80.3413 103.378 74.9563 103.715 75.1246 98.7784C75.349 93.8421 77.4805 81.8381 63.401 70.9559C63.5131 72.9191 63.1766 74.9385 62.3913 76.7335C62.3913 76.7335 58.0721 62.093 33.5591 64.6173C31.147 65.1221 30.2495 66.0196 30.2495 66.0196C30.2495 66.0196 41.0756 65.1221 45.2827 69.3291C42.5902 69.3291 39.8977 69.8901 37.4295 70.8998C37.4295 70.8998 52.8553 69.1048 53.1919 80.4918C54.426 79.3138 54.9869 76.397 54.9869 76.397C55.9405 78.5285 56.3331 80.8284 56.1649 83.1282C57.1745 82.7917 58.4647 80.4357 58.4086 79.5382C60.3158 82.0063 59.1939 86.3256 59.1939 86.3256C59.1939 86.3256 60.9889 87.6718 61.8303 88.6254C63.1205 86.2695 66.0374 85.372 68.4494 86.606C66.7105 84.6988 64.3546 83.3526 61.8303 82.7356C69.1786 81.3893 76.1342 88.2888 69.5713 94.5153C69.2347 94.8518 68.786 95.1323 68.3933 95.3567C68.786 95.9176 72.1516 99.9003 71.5907 105.958C70.4127 101.527 64.3546 95.5249 64.3546 95.5249C62.9522 95.0201 61.8303 93.786 61.4938 92.3276C60.0353 90.9253 58.5208 89.6351 56.9502 88.401C31.3714 76.6213 16.6187 90.8131 16.1139 91.991C16.7309 91.374 19.4234 90.757 20.1527 90.9253C19.8722 91.0935 15.5529 94.1226 14.0384 97.7126C14.6554 97.0956 16.2261 96.5346 16.8431 96.5346C13.5897 101.022 12.3556 110.726 12.3556 110.726C12.3556 110.726 10.8972 112.97 10.7289 115.102C11.1776 114.26 11.9069 113.587 12.6922 113.138C11.9629 133.557 26.9961 154.311 27.5009 155.209C27.6131 155.377 35.6906 162.445 43.4316 165.586C40.066 162.781 36.9247 159.696 34.0639 156.387C11.8508 130.864 15.8334 101.134 32.1006 93.786C46.1802 87.167 65.4764 99.0028 68.4494 107.361L68.5616 107.641C72.0955 111.736 75.6294 110.222 76.6952 106.912C77.1439 105.061 78.8268 103.939 80.3413 103.378Z" fill="#D8D8D8"/>
<path d="M36.6456 80.5466C34.6823 80.3783 33.3361 78.5272 33.3361 78.5272C33.3361 78.5272 33.4483 80.9392 33.9531 82.2294C29.8583 81.7806 26.0439 79.7052 23.4636 76.5078C23.4636 76.5078 23.8562 79.3686 24.6416 81.2197C9.94497 82.6781 -5.25646 117.793 27.334 155.151C26.8292 154.254 11.8522 133.499 12.4692 113.081C11.9082 113.305 11.0108 114.259 10.562 115.044C10.7303 112.857 12.1887 110.669 12.1887 110.669C12.1887 110.669 13.4228 101.077 16.6762 96.5333C15.6104 96.5894 14.6568 96.982 13.8715 97.6551C15.3861 94.0651 19.7053 91.0361 19.9858 90.8678C18.5834 90.8117 17.1811 91.2044 16.0031 91.9336C16.5079 90.7556 31.2045 76.5639 56.8394 88.3436C47.5278 79.3686 36.4773 77.7419 36.4773 77.7419C36.3651 78.6955 36.4212 79.6491 36.6456 80.5466ZM80.3427 112.464C80.0622 111.622 77.5941 110.893 76.8088 112.183C75.9113 113.698 79.2208 116.503 82.3621 117.4C78.2672 114.764 77.2575 112.015 80.3988 112.408L80.3427 112.464ZM100.48 128.675L89.9908 108.257C89.9908 108.257 88.1958 104.835 80.0622 105.957L99.6951 133.723L87.1862 109.098L100.424 128.675H100.48Z" fill="#555555"/>
<path d="M65.8701 52.5612C65.1969 53.7391 65.253 55.3659 65.253 55.3659C65.253 55.3659 34.5697 44.091 29.353 18.1196C26.2678 24.7387 29.1286 32.5357 29.1286 32.5357C29.1286 32.5357 24.6972 27.4312 24.3045 23.8412C10.9542 51.2149 32.6625 64.2848 33.4478 64.5652C57.9608 62.041 62.2801 76.7376 62.2801 76.7376C63.1215 74.8865 63.458 72.9232 63.3458 70.9038C77.4254 81.786 75.2938 93.7901 75.0694 98.7263C74.9012 103.719 80.2862 103.326 80.2862 103.326C80.9032 103.214 85.3907 102.148 88.0272 103.438C94.0292 70.399 73.6671 66.9773 65.8701 52.5612Z" fill="#E21037"/>
<path d="M66.0945 95.8059C65.4775 95.8059 64.8605 95.6937 64.2995 95.4694C64.2995 95.4694 70.3016 101.471 71.5356 105.847C71.8722 102.032 70.7503 98.274 68.2822 95.3572C67.553 95.6376 66.8238 95.8059 66.0945 95.8059ZM61.7753 82.7361C64.7483 83.6336 67.0481 84.9238 68.3944 86.6066C68.787 87.0553 69.1236 87.5601 69.348 88.1211V88.1772L69.4602 88.2894C69.7406 89.1308 69.4601 89.6917 68.7309 90.0844C67.8895 90.4209 67.3286 90.2527 66.9359 89.4112C66.7116 89.0186 66.7116 88.5698 66.9359 88.2333C65.6458 88.9064 65.1409 90.5331 65.8141 91.8794C66.4872 93.1695 68.1139 93.6744 69.4602 93.0012C69.6284 92.9452 69.7406 92.833 69.9089 92.7208L69.5723 94.5158V94.5719C76.1353 88.2894 69.1236 81.4459 61.7753 82.7922V82.7361ZM76.8645 112.185C77.5937 111.007 80.0619 111.624 80.3423 112.41C77.2572 111.961 78.2108 114.822 82.3056 117.458C79.1083 116.505 75.8548 113.756 76.7523 112.241L76.8645 112.185ZM89.9343 108.259L100.424 128.677L87.1858 109.1L99.6386 133.725L79.9497 105.959C88.1954 104.893 89.9343 108.259 89.9343 108.259ZM93.0756 162.501C93.5805 162.333 95.4315 162.614 96.4973 163.343C92.7951 145.393 60.8778 124.358 60.8778 124.358C60.8778 124.358 63.0655 125.143 64.9727 124.189C88.2515 141.747 113.662 152.404 113.662 152.404C113.662 152.404 106.426 134.679 92.8512 104.669C100.312 65.5153 72.0405 62.5985 65.8141 42.1803C65.0288 43.1339 62.9533 46.9483 62.7289 48.9116C59.3633 47.1166 35.0186 37.3563 32.1578 6.84131C12.1885 21.4257 9.38378 51.1553 25.8753 65.0666C18.9758 65.4031 13.4786 57.3256 12.8616 53.4552C5.79379 63.0472 10.0008 77.1267 13.4786 80.3802C10.2813 79.1461 8.93504 75.8366 8.93504 75.8366C8.93504 75.8366 7.98144 80.6606 12.1324 83.4653C-5.0884 107.417 7.5327 140.344 27.446 155.153C-5.20058 117.851 10.0008 82.68 24.8096 81.2216C23.9681 79.4266 23.6316 76.5097 23.6316 76.5097C26.2119 79.707 29.9702 81.7825 34.065 82.2312C33.5602 80.885 33.448 78.473 33.448 78.473C33.448 78.473 34.7942 80.3802 36.7575 80.6045C36.5331 79.707 36.4771 78.7534 36.6453 77.8559C36.6453 77.8559 47.6958 79.4827 57.0634 88.4576H56.9512C58.5219 89.6917 60.0364 90.9819 61.4948 92.3281C61.3266 91.8794 61.2705 91.4306 61.2705 90.9258C61.2705 90.0844 61.4949 89.2991 61.8875 88.5698C61.0461 87.6162 59.2511 86.27 59.2511 86.27C59.2511 86.27 60.3169 81.9508 58.4658 79.5387C58.4658 80.3241 57.2878 82.7361 56.2781 83.0166C56.3903 80.7167 55.9416 78.4169 55.0441 76.2853C55.0441 76.2853 54.4831 79.3144 53.2491 80.4363C52.9686 68.9931 37.4867 70.8442 37.4867 70.8442C39.9549 69.8345 42.5913 69.3297 45.2838 69.2736C41.0767 65.0666 30.2507 65.9641 30.2507 65.9641C30.2507 65.9641 31.2042 65.0666 33.5602 64.5617C32.7749 64.2813 11.0666 51.2114 24.4169 23.8377C24.7535 27.3716 29.241 32.5322 29.241 32.5322C29.241 32.5322 26.4363 24.7352 29.4653 18.1161C34.682 44.1436 65.3653 55.3624 65.3653 55.3624C65.3653 55.3624 65.3092 53.7356 65.9823 52.5577C73.7794 66.9738 94.1414 70.3394 88.1955 103.491C85.5591 102.145 81.0715 103.21 80.5106 103.322C78.94 103.94 77.2572 105.005 76.6402 106.912C75.5744 110.11 72.0405 111.737 68.3944 107.53C68.3944 107.473 68.3944 107.361 68.3944 107.305V107.53C68.3944 107.53 63.4581 115.719 71.1991 120.824C69.7406 120.88 68.3383 120.431 67.2164 119.59C67.2164 119.59 68.0017 122.843 69.8528 124.47C66.7116 122.002 64.0191 119.646 64.0191 119.646C64.0191 119.646 56.783 120.431 51.8467 116.448C51.5102 125.816 62.8411 127.555 72.3209 138.269C21.1635 124.806 31.7091 99.1155 31.8774 98.6667C15.2736 110.615 30.3067 137.371 33.2797 140.961C56.2781 170.691 86.6248 166.035 88.7003 187.239C95.095 183.144 94.2536 171.925 94.2536 171.925C94.2536 171.925 96.6656 173.103 97.7314 175.01C97.8997 170.13 96.3851 166.035 93.0756 162.501Z" fill="#0F0F10"/>
</svg>
