<svg width="150" height="150" viewBox="0 0 150 150" fill="none" xmlns="http://www.w3.org/2000/svg">
<path d="M10.6605 74.9959C10.6605 100.462 25.4601 122.47 46.9207 132.899L16.2307 48.8123C12.6609 56.8138 10.6605 65.6685 10.6605 74.9959Z" fill="white"/>
<path d="M118.431 71.749C118.431 63.7977 115.575 58.2911 113.125 54.0051C109.864 48.7055 106.807 44.2175 106.807 38.9178C106.807 33.0036 111.293 27.4983 117.611 27.4983C117.896 27.4983 118.167 27.5338 118.445 27.5497C106.998 17.0631 91.748 10.6604 74.9982 10.6604C52.5215 10.6604 32.7467 22.1926 21.2427 39.6597C22.7521 39.705 24.1747 39.7368 25.383 39.7368C32.1125 39.7368 42.5294 38.9203 42.5294 38.9203C45.9976 38.7159 46.4065 43.8098 42.942 44.2199C42.942 44.2199 39.4566 44.6301 35.5783 44.8333L59.0074 114.522L73.0872 72.295L63.0633 44.8308C59.5987 44.6276 56.3166 44.2175 56.3166 44.2175C52.8496 44.0143 53.256 38.7134 56.723 38.9178C56.723 38.9178 67.348 39.7344 73.6699 39.7344C80.3982 39.7344 90.8163 38.9178 90.8163 38.9178C94.287 38.7134 94.6946 43.8074 91.2289 44.2175C91.2289 44.2175 87.7362 44.6276 83.8652 44.8308L107.116 113.992L113.533 92.5473C116.314 83.6484 118.431 77.2567 118.431 71.749Z" fill="white"/>
<path d="M76.1269 80.6233L56.8234 136.716C62.5871 138.41 68.6824 139.337 74.9982 139.337C82.4904 139.337 89.6754 138.042 96.3633 135.69C96.1907 135.414 96.034 135.122 95.9054 134.804L76.1269 80.6233Z" fill="white"/>
<path d="M131.452 44.1282C131.729 46.1775 131.885 48.3774 131.885 50.7439C131.885 57.2726 130.666 64.6118 126.993 73.7886L107.341 130.608C126.468 119.454 139.333 98.7321 139.333 74.9969C139.335 63.8112 136.477 53.2927 131.452 44.1282Z" fill="white"/>
<path d="M74.9982 0C33.6452 0 0 33.6428 0 74.9957C0 116.354 33.6452 149.995 74.9982 149.995C116.35 149.995 150 116.354 150 74.9957C149.999 33.6428 116.35 0 74.9982 0ZM74.9982 146.557C35.5416 146.557 3.43883 114.455 3.43883 74.9957C3.43883 35.5391 35.5403 3.43883 74.9982 3.43883C114.454 3.43883 146.554 35.5391 146.554 74.9957C146.554 114.455 114.454 146.557 74.9982 146.557Z" fill="white"/>
</svg>
