<svg width="150" height="150" viewBox="0 0 150 150" fill="none" xmlns="http://www.w3.org/2000/svg">
<path d="M75 150C116.421 150 150 116.421 150 75C150 33.5786 116.421 0 75 0C33.5786 0 0 33.5786 0 75C0 116.421 33.5786 150 75 150Z" fill="#FF4A00"/>
<path d="M84.375 75.0161C84.3755 77.718 83.8876 80.3978 82.9351 82.9263C80.4043 83.8826 77.7215 84.3734 75.0161 84.375H74.9839C72.282 84.3752 69.6023 83.8874 67.0737 82.9351C66.1173 80.4043 65.6265 77.7215 65.625 75.0161V74.9839C65.6253 72.282 66.1131 69.6024 67.0649 67.0737C69.5956 66.1173 72.2785 65.6264 74.9839 65.625H75.0161C77.7211 65.6239 80.404 66.1122 82.9351 67.0664C83.8877 69.5948 84.3755 72.2746 84.375 74.9766V75.0088V75.0161ZM111.979 68.7495H90.0879L105.567 53.272C104.351 51.5669 102.995 49.9661 101.514 48.4863C100.034 47.0067 98.4328 45.6529 96.728 44.439L81.2505 59.9121V38.0215C79.1918 37.6757 77.108 37.5012 75.0205 37.5H74.981C72.8934 37.5012 70.8096 37.6757 68.751 38.0215V59.9121L53.272 44.4331C51.5669 45.6489 49.9662 47.0047 48.4863 48.4863C47.0073 49.9655 45.654 51.5653 44.4404 53.269L59.9121 68.7495H38.0215C38.0215 68.7495 37.5 72.8613 37.5 74.9868V75.0132C37.5009 77.1031 37.6753 79.1894 38.0215 81.2505H59.9121L44.4331 96.728C46.8672 100.145 49.8545 103.133 53.272 105.567L68.7495 90.0879V111.979C70.8063 112.324 72.8881 112.498 74.9736 112.5H75.0278C77.1129 112.498 79.1942 112.324 81.2505 111.979V90.0879L96.728 105.567C98.4331 104.351 100.034 102.995 101.514 101.514C102.994 100.034 104.348 98.4328 105.563 96.728L90.0879 81.2505H111.979C112.324 79.1937 112.498 77.1119 112.5 75.0264V74.9722C112.498 72.8871 112.324 70.8058 111.979 68.7495V68.7495Z" fill="white"/>
</svg>
